<svg xmlns="http://www.w3.org/2000/svg" viewBox="0 0 1477.93 1379.08"><g id="Layer_2" data-name="Layer 2"><g id="Layer_1-2" data-name="Layer 1"><path id="call" d="M1099,1379.08c-36.8,0-65.6-4.61-84.65-7.67-47.24-7.56-82.51-20.33-141-41.47-41.71-15.11-93.52-33.86-151.84-62.09C607.65,1212.74,529.14,1151,487,1117.85,328.8,993.5,236.4,869.83,181.19,795.94c-52.77-70.64-127-179-162.68-303.88A470.45,470.45,0,0,1,2.26,409.84C-10,292,31.66,192.63,33.44,188.46c26.18-61.27,67.74-116.6,120.17-160l1.44-1.2,1.57-1C178.63,12,202.35,3.61,227.1,1.3,231.64.88,236.31.66,241,.66c1.3,0,2.59,0,3.88,0l.7,0,.7,0C262.44.24,277.27,0,290.3,0c26.1,0,39.91,1,46.91,1.79a81,81,0,0,1,13.61,2.75c23.88,7,38,23.55,44.75,31.49a126.61,126.61,0,0,1,20.94,34.55l.13.3c65,154,111.47,265.23,117.15,279.19a85.78,85.78,0,0,1,6.49,29.5,89.5,89.5,0,0,1-4.2,29.78c-6.89,23.3-17.49,41.38-24.87,53-3.48,5.45-9.24,14.17-19.16,26.94-11.92,15.33-38.75,48.13-60.05,70.89l-13.08,14,9.6,16.56c12.68,21.85,21.46,34.55,22.41,35.92l.09.13c1.63,2.3,3.25,4.62,4.88,6.95l5.44,7.86c5.65,8.23,11.39,16.77,17,25.3l.29.44.31.43A936.7,936.7,0,0,0,757,924.31l.34.2.35.2c66.81,37.48,115.18,59.38,138.16,67.38l15.27,5.31,16.81-16.82,116.15-145.92,2.77-2.23c14.51-11.64,31.37-18.35,48.75-19.41,1.59-.1,3.2-.15,4.78-.15a96.67,96.67,0,0,1,17.64,1.81c17.31,3.07,29.54,8.88,40.33,14l3,1.42c11,5.2,22.71,10.24,34.76,15l1,.4,1,.48c67.35,32.12,129.93,62.55,176.17,85.67,74.25,37.12,77.76,40.72,82.21,45.27a65.61,65.61,0,0,1,16.32,28.26l.2.73.23.71a97.63,97.63,0,0,1,4.21,40c-2.85,34.76-5,54.35-10.21,78.5-4.28,19.85-9.14,42.35-22.37,70.17a299,299,0,0,1-19.08,33.59c-31.7,47.48-80.52,77.47-114.48,95.9a452.7,452.7,0,0,1-144.69,49.08A443,443,0,0,1,1099,1379.08ZM240.91,64.43c-2.64,0-5.29.12-7.88.36A91.29,91.29,0,0,0,194.7,77.65l-1.84,1.09-1.63,1.39c-30.13,25.5-71.78,69.35-99.14,133.38l-.09.21c-1.51,3.61-36.72,89.57-26.31,189.51a408.84,408.84,0,0,0,14.14,71.34c32.75,114.77,102.69,216.59,152.45,283.2,53.32,71.36,142.56,190.81,294.1,309.94,40.29,31.68,115.28,90.64,222.93,142.74,55.35,26.79,103.35,44.16,145.69,59.49,62.69,22.69,89.69,32.14,129.4,38.5,17,2.73,42.7,6.85,74.76,6.85a376.89,376.89,0,0,0,57.67-4.47,388.24,388.24,0,0,0,124.06-42.11c16.14-8.75,65.25-35.4,91.87-75.26a239.6,239.6,0,0,0,14.52-25.58c10-21.12,13.73-38.17,17.62-56.22,4.42-20.5,6.2-36.22,9-70.22l1.38-16.87-14.93-8c-28.38-15.14-105.11-53.62-228-112.22l-.76-.37-.78-.31c-12.67-5.05-25-10.39-36.62-15.88l-3.23-1.53c-8.45-4-14-6.66-21.51-8.29l-15.67-3.43L975.51,1023.18l-1.3,1.29c-2.31,2.3-5.75,5.73-9.94,9.94l-5.31,5.35-.5.5c-2.11,2.14-3,3.06-4.4,4.27l-.4.34c-4,3.41-19,14.38-45.68,14.38l-2.33,0c-9.36-.21-25.78-3-70.25-23C804,1022,766.13,1002.6,725.85,980l-1.13-.66A1000.2,1000.2,0,0,1,426.55,704.07l-1-1.49c-8.79-13.39-17.76-26.57-26.66-39.18L393,655.13v-.33l-4-6.32c-6.17-9.72-12.49-20.25-18.79-31.3-3.46-6.06-10.65-18.67-12-36.21a75.63,75.63,0,0,1,6.69-37.63A73.34,73.34,0,0,1,379.29,523c20.42-20.71,51.4-58.71,62.4-72.86,8.29-10.66,12.95-17.71,15.74-22.08,5.76-9,12.95-21.38,17.5-36.77l.4-1.38,2.37-8.52-3.35-8.19c-5.85-14.27-49.12-117.85-116.6-277.82l-.26-.62a63.19,63.19,0,0,0-10.43-17.32c-.89-1-2.54-3-4.11-4.64l-6.76-7.16-9.82-.82c-8-.68-20.41-1-35.84-1-12.95,0-27.8.25-44.14.73l-1.1,0-1.08-.05Q242.55,64.43,240.91,64.43Z" style="fill:#151515"/></g></g></svg>