<svg xmlns="http://www.w3.org/2000/svg" viewBox="0 0 1457.83 1451.6"><g id="Layer_2" data-name="Layer 2"><g id="Layer_1-2" data-name="Layer 1"><path id="filter" d="M556,840.87V1374c0,37.21,40.8,60,72.48,40.49l254.35-156.63a47.53,47.53,0,0,0,22.62-40.49V840.69a87.3,87.3,0,0,1,28.06-64.13L1384.48,360a134.84,134.84,0,0,0,43.35-99V97a67,67,0,0,0-67-67H97A67,67,0,0,0,30,97V260.62A134.86,134.86,0,0,0,73.69,360L527.74,776.54A87.31,87.31,0,0,1,556,840.87Z" style="fill:none;stroke:#151515;stroke-linecap:round;stroke-linejoin:round;stroke-width:60px"/></g></g></svg>