<svg xmlns="http://www.w3.org/2000/svg" viewBox="0 0 1484.99 1488.5"><g id="Layer_2" data-name="Layer 2"><g id="Layer_1-2" data-name="Layer 1"><g id="password"><path d="M0,1452.66,7.92,1223a34.63,34.63,0,0,1,10-23.17L572.83,639.09a34.63,34.63,0,0,0,8.43-34.73h0A474.59,474.59,0,0,1,694.64,130.12,466.27,466.27,0,0,1,1017.5.06h.54c2.49,0,5-.06,7.46-.06a462.64,462.64,0,0,1,272.62,88.89,471.56,471.56,0,0,1,117.05,622.77,470.79,470.79,0,0,1-398.08,219.45h-4.9a476.81,476.81,0,0,1-135.51-19.67h0A34.66,34.66,0,0,0,843.6,919l-114.84,103.8a34.64,34.64,0,0,1-21.69,8.91l-76.79,3.42A34.65,34.65,0,0,0,597.37,1066l-6.89,63.93A34.63,34.63,0,0,1,556,1160.83H509.79a34.65,34.65,0,0,0-34.19,29.05h0c-4.4,26.89-8.34,51.33-12,74.89a34.62,34.62,0,0,1-29.67,29l-67.31,9a34.64,34.64,0,0,0-30.08,34.34v63a34.62,34.62,0,0,1-9.48,23.81c-13.79,14.58-27.7,29.07-41.3,43.23l-10.33,10.75a34.63,34.63,0,0,1-25,10.66H34.64A34.65,34.65,0,0,1,0,1452.66ZM572.52,732,83.66,1226.87a34.7,34.7,0,0,0-10,23L68.42,1384.7a34.63,34.63,0,0,0,34.62,36h119a34.68,34.68,0,0,0,24.5-10.14l5.27-5.28c.43-.42.85-.87,1.25-1.32l6.78-7.53a34.63,34.63,0,0,0,8.9-23.17v-94.87a34.65,34.65,0,0,1,29.86-34.31l59.55-8.29,25.61-3.77a34.64,34.64,0,0,0,29.6-34.27l10.79-82.38A34.65,34.65,0,0,1,458.23,1087h44a34.65,34.65,0,0,0,34.46-31.06l5.88-56.64a34.63,34.63,0,0,1,32.9-31l56.35-2.55H683a34.65,34.65,0,0,0,23.82-9.49l28.43-26.94L800.83,869l16.47-15.38a62.8,62.8,0,0,1,59.77-14.55l22.31,6.24A410.81,410.81,0,0,0,1017,862.54h.75A405.35,405.35,0,0,0,1357,674.8l.3-.45.27-.47A404.57,404.57,0,0,0,1253,142.62l-.39-.29a392.18,392.18,0,0,0-232.81-76h-4a401,401,0,0,0-274.24,108l-.7.66-.67.69A410.73,410.73,0,0,0,645.44,586.6l5.9,19.67a62.77,62.77,0,0,1-15.45,62.13l-15.84,16.06Z" style="fill:#151515"/><path d="M1151.17,449.62c-77.49,0-140.53-63.05-140.53-140.54s63-140.53,140.53-140.53,140.54,63,140.54,140.53S1228.67,449.62,1151.17,449.62Zm0-221.07a80.54,80.54,0,1,0,80.54,80.53A80.63,80.63,0,0,0,1151.17,228.55Z" style="fill:#151515"/></g></g></g></svg>