<svg xmlns="http://www.w3.org/2000/svg" viewBox="0 0 1468.62 1403.63"><g id="Layer_2" data-name="Layer 2"><g id="Layer_1-2" data-name="Layer 1"><path id="star" d="M770.48,52.48l186.4,377.69a40.33,40.33,0,0,0,30.36,22.06L1404,512.79c33.09,4.81,46.29,45.47,22.36,68.8l-301.6,294a40.29,40.29,0,0,0-11.6,35.7l71.2,415.11c5.65,32.95-28.94,58.08-58.53,42.52l-372.79-196a40.32,40.32,0,0,0-37.54,0l-372.79,196c-29.59,15.56-64.18-9.57-58.53-42.52l71.2-415.11a40.29,40.29,0,0,0-11.6-35.7l-301.6-294c-23.93-23.33-10.72-64,22.36-68.8l416.8-60.56a40.33,40.33,0,0,0,30.36-22.06L698.14,52.48C712.94,22.51,755.68,22.51,770.48,52.48Z" style="fill:none;stroke:#151515;stroke-linecap:round;stroke-linejoin:round;stroke-width:60px"/></g></g></svg>