<svg xmlns="http://www.w3.org/2000/svg" viewBox="0 0 1307.8 1435.7"><g id="Layer_2" data-name="Layer 2"><g id="Layer_1-2" data-name="Layer 1"><g id="trash"><path d="M151.9,453.53V1318a87.71,87.71,0,0,0,87.7,87.7h828.6a87.71,87.71,0,0,0,87.7-87.7V453.53" style="fill:none;stroke:#151515;stroke-linecap:round;stroke-linejoin:round;stroke-width:60px"/><path d="M1277.8,431.7V257.36a87.69,87.69,0,0,0-87.7-87.7H117.7A87.7,87.7,0,0,0,30,257.36V431.7Z" style="fill:none;stroke:#151515;stroke-linecap:round;stroke-linejoin:round;stroke-width:60px"/><path d="M558.4,169.66V68.52A38.52,38.52,0,0,1,596.91,30h114A38.52,38.52,0,0,1,749.4,68.52V169.66" style="fill:none;stroke:#151515;stroke-linecap:round;stroke-linejoin:round;stroke-width:60px"/><line x1="392.11" y1="647.42" x2="392.11" y2="1248.28" style="fill:none;stroke:#151515;stroke-linecap:round;stroke-linejoin:round;stroke-width:60px"/><line x1="653.9" y1="647.42" x2="653.9" y2="1248.28" style="fill:none;stroke:#151515;stroke-linecap:round;stroke-linejoin:round;stroke-width:60px"/><line x1="915.69" y1="647.42" x2="915.69" y2="1248.28" style="fill:none;stroke:#151515;stroke-linecap:round;stroke-linejoin:round;stroke-width:60px"/></g></g></g></svg>