<svg xmlns="http://www.w3.org/2000/svg" viewBox="0 0 1403.86 1486.9"><g id="Layer_2" data-name="Layer 2"><g id="Layer_1-2" data-name="Layer 1"><g id="home"><path d="M732.86,42.27,1361.5,670.92c26.4,26.39,7.7,71.53-29.63,71.53H72c-37.37,0-56-45.22-29.56-71.59L673.66,42.21A41.91,41.91,0,0,1,732.86,42.27Z" style="fill:none;stroke:#ededed;stroke-linecap:round;stroke-linejoin:round;stroke-width:60px"/><path d="M244.59,1456.81a65.63,65.63,0,0,1-65.49-65.63V742.45H1211.86v648.82a65.63,65.63,0,0,1-65.4,65.63Z" style="fill:none;stroke:#ededed;stroke-linecap:round;stroke-linejoin:round;stroke-width:60px"/><path d="M593,991H810.83a40.23,40.23,0,0,1,40.23,40.23v421.84a0,0,0,0,1,0,0H552.79a0,0,0,0,1,0,0V1031.21A40.23,40.23,0,0,1,593,991Z" style="fill:none;stroke:#ededed;stroke-linecap:round;stroke-linejoin:round;stroke-width:60px"/></g></g></g></svg>