<svg xmlns="http://www.w3.org/2000/svg" viewBox="0 0 1239.51 1466.93"><g id="Layer_2" data-name="Layer 2"><g id="Layer_1-2" data-name="Layer 1"><g id="notification"><path d="M850.43,1210.09H789.86a171,171,0,0,1-1.17,60c-15.5,77.92-84.42,136.84-166.84,136.84S470.51,1348,455,1270.09a171,171,0,0,1-1.17-60H393.27a234,234,0,0,0,.85,60,230.16,230.16,0,0,0,455.46,0,234,234,0,0,0,.85-60Z" style="fill:#ededed"/><path d="M1239.26,1111.19a174.5,174.5,0,0,0-11.4-49.35c-11.26-28.59-27.62-46.56-36.64-54.91a205.17,205.17,0,0,1-41.92-53.75,264.72,264.72,0,0,1-24.46-65c-.22-1-.44-1.91-.65-2.88a229.25,229.25,0,0,1-5.13-48.87V497.49A497.61,497.61,0,0,0,163.19,303.84a494.36,494.36,0,0,0-39.11,193.65V846.28a224.93,224.93,0,0,1-4.93,39c-.21,1-.42,1.93-.65,2.9a264.8,264.8,0,0,1-24.46,65A202.55,202.55,0,0,1,58,1001.31q-2.87,2.85-5.85,5.62c-19,17.63-50.63,56-52.11,117,0,1.5.1,3,.19,4.47,4.43,78.9,70,141.72,150,141.72h939.07c80,0,145.57-62.82,150-141.72.17-2.82.25-5.67.25-8.53S1239.43,1114.05,1239.26,1111.19Zm-150,98.9H150.19A90.35,90.35,0,0,1,60,1123.74q-.09-1.93-.09-3.9a90.18,90.18,0,0,1,37.41-73.12,273.34,273.34,0,0,0,26.73-29.87A254.41,254.41,0,0,0,147,981.41q3.12-5.86,6-11.82a322.7,322.7,0,0,0,24-68c.28-1.19.54-2.37.8-3.56a286.42,286.42,0,0,0,6.32-50.74V497.49C184.08,256.26,380.34,60,621.57,60s437.49,196.26,437.49,437.49V836.38a289.05,289.05,0,0,0,6.51,61.68q.39,1.79.81,3.57a323.23,323.23,0,0,0,24,68q2.88,6,6,11.81a254.72,254.72,0,0,0,22.7,35.18,276.42,276.42,0,0,0,31.38,34.35c5.53,5.12,15.62,16.36,22.46,35a89.55,89.55,0,0,1,6.5,29.55c.08,1.44.11,2.89.11,4.35A90.36,90.36,0,0,1,1089.26,1210.09Z" style="fill:#ededed"/></g></g></g></svg>