<svg xmlns="http://www.w3.org/2000/svg" viewBox="0 0 1459.27 1457.9"><g id="Layer_2" data-name="Layer 2"><g id="Layer_1-2" data-name="Layer 1"><g id="pencil"><path d="M789.37,379.37l-678.29,678.3a40,40,0,0,0-10.7,19.33L31,1378.92c-6.61,28.83,19.25,54.61,48.05,47.91l305.55-71.13A40,40,0,0,0,403.86,1345l677-677.44a40,40,0,0,0-.2-56.74L845.74,379.18A40,40,0,0,0,789.37,379.37Z" style="fill:none;stroke:#ededed;stroke-linecap:round;stroke-linejoin:round;stroke-width:60px"/><path d="M944.83,281.51l232.7,232.71a40,40,0,0,0,56.56,0l183.47-183.47a40,40,0,0,0,0-56.56L1185.08,41.71a40,40,0,0,0-56.52,0L944.86,224.91A40,40,0,0,0,944.83,281.51Z" style="fill:none;stroke:#ededed;stroke-linecap:round;stroke-linejoin:round;stroke-width:60px"/></g></g></g></svg>