<svg xmlns="http://www.w3.org/2000/svg" viewBox="0 0 1460.6 1450.52"><g id="Layer_2" data-name="Layer 2"><g id="Layer_1-2" data-name="Layer 1"><g id="reload"><path d="M1158.56,1277.78C898.12,1469.48,545,1467,299.41,1277,80,1107.29-17.76,815.75,52.44,538.1" style="fill:none;stroke:#ededed;stroke-linecap:round;stroke-linejoin:round;stroke-width:60px"/><path d="M1318.78,1374.49l47.35-208.27a41.2,41.2,0,0,0-36.12-50.14l-217-21.46c-35.54-3.51-58.42,36.76-37.2,65.48l169.69,229.74C1266.4,1418.19,1311,1408.86,1318.78,1374.49Z" style="fill:none;stroke:#ededed;stroke-linecap:round;stroke-linejoin:round;stroke-width:60px"/><path d="M302,172.74c260.44-191.7,613.53-189.2,859.15.8,219.37,169.69,317.17,461.24,247,738.88" style="fill:none;stroke:#ededed;stroke-linecap:round;stroke-linejoin:round;stroke-width:60px"/><path d="M141.82,76,94.47,284.31a41.2,41.2,0,0,0,36.13,50.14l217,21.45c35.54,3.52,58.42-36.76,37.2-65.48L215.14,60.68C194.2,32.33,149.63,41.66,141.82,76Z" style="fill:none;stroke:#ededed;stroke-linecap:round;stroke-linejoin:round;stroke-width:60px"/></g></g></g></svg>