<svg xmlns="http://www.w3.org/2000/svg" viewBox="0 0 711.09 145.16"><defs><style>.cls-1{fill:#151515;}</style></defs><g id="Layer_2" data-name="Layer 2"><g id="Layer_2-2" data-name="Layer 2"><path class="cls-1" d="M204.42,53.49a14.17,14.17,0,0,1,5.48,5V52.21h13.68V96.77a25,25,0,0,1-2.44,11.16,18.58,18.58,0,0,1-7.44,8,24,24,0,0,1-12.44,3q-9.91,0-16.08-4.68a17.65,17.65,0,0,1-7-12.68h13.52a6.46,6.46,0,0,0,3,4,11,11,0,0,0,5.92,1.48,9.29,9.29,0,0,0,6.76-2.44q2.52-2.43,2.52-7.8V90.45a15.06,15.06,0,0,1-5.52,5.08,16.63,16.63,0,0,1-8.24,2,18.24,18.24,0,0,1-10-2.84,19.52,19.52,0,0,1-7.08-8.08,27,27,0,0,1-2.6-12.12,26.75,26.75,0,0,1,2.6-12.08,19.41,19.41,0,0,1,7.08-8,18.55,18.55,0,0,1,10-2.8A17.16,17.16,0,0,1,204.42,53.49Zm2.64,13a9.61,9.61,0,0,0-13.84,0,11.07,11.07,0,0,0-2.84,8,11.33,11.33,0,0,0,2.84,8.12,9.52,9.52,0,0,0,13.84,0,11.18,11.18,0,0,0,2.84-8.08A11.22,11.22,0,0,0,207.06,66.45Z"/><path class="cls-1" d="M233.38,62.37a19.41,19.41,0,0,1,7.08-8,18.52,18.52,0,0,1,10-2.8,17.22,17.22,0,0,1,8.28,1.92,14.17,14.17,0,0,1,5.48,5V52.21H277.9V96.85H264.22V90.53a14.77,14.77,0,0,1-5.56,5,17.22,17.22,0,0,1-8.28,1.92,18.07,18.07,0,0,1-9.92-2.84,19.52,19.52,0,0,1-7.08-8.08,27,27,0,0,1-2.6-12.12A26.75,26.75,0,0,1,233.38,62.37Zm28,4.08a9.61,9.61,0,0,0-13.84,0,11.07,11.07,0,0,0-2.84,8,11.33,11.33,0,0,0,2.84,8.12,9.52,9.52,0,0,0,13.84,0,11.18,11.18,0,0,0,2.84-8.08A11.22,11.22,0,0,0,261.38,66.45Z"/><path class="cls-1" d="M327.54,56.81q4.68,5.09,4.68,14V96.85h-13.6V72.61a9.85,9.85,0,0,0-2.32-7,9.09,9.09,0,0,0-12.48,0,9.8,9.8,0,0,0-2.32,7V96.85H287.82V52.21H301.5v5.92a14.42,14.42,0,0,1,5.6-4.68A17.85,17.85,0,0,1,315,51.73Q322.85,51.73,327.54,56.81Z"/><path class="cls-1" d="M341.62,62.37a19.41,19.41,0,0,1,7.08-8,18.52,18.52,0,0,1,10-2.8,17.67,17.67,0,0,1,8,1.84,14.75,14.75,0,0,1,5.72,5V37.65h13.68v59.2H372.46v-6.4A13.91,13.91,0,0,1,367,95.57a17.22,17.22,0,0,1-8.28,1.92,18.22,18.22,0,0,1-10-2.84,19.52,19.52,0,0,1-7.08-8.08A26.82,26.82,0,0,1,339,74.45,26.62,26.62,0,0,1,341.62,62.37Zm28,4.08a9.61,9.61,0,0,0-13.84,0c-1.9,2-2.84,4.63-2.84,8a11.29,11.29,0,0,0,2.84,8.12,9.52,9.52,0,0,0,13.84,0,11.18,11.18,0,0,0,2.84-8.08A11.22,11.22,0,0,0,369.62,66.45Z"/><path class="cls-1" d="M404.57,94.69a20.46,20.46,0,0,1-8.24-8,23.89,23.89,0,0,1-3-12.16,23.72,23.72,0,0,1,3.05-12.12,20.6,20.6,0,0,1,8.31-8,26.45,26.45,0,0,1,23.69,0,20.6,20.6,0,0,1,8.31,8,23.72,23.72,0,0,1,3.05,12.12,23.39,23.39,0,0,1-3.09,12.12,20.7,20.7,0,0,1-8.4,8,25,25,0,0,1-11.87,2.8A24.64,24.64,0,0,1,404.57,94.69Zm18.49-11.92c1.84-1.92,2.76-4.66,2.76-8.24s-.9-6.32-2.68-8.24a9.09,9.09,0,0,0-13.24,0c-1.76,1.9-2.65,4.66-2.65,8.28s.87,6.32,2.6,8.24a8.44,8.44,0,0,0,6.53,2.88A8.92,8.92,0,0,0,423.06,82.77Z"/><path class="cls-1" d="M517.21,56.77q4.92,5,4.92,14V96.85h-13.6V72.61a9.23,9.23,0,0,0-2.28-6.68,9.54,9.54,0,0,0-12.56,0,9.23,9.23,0,0,0-2.28,6.68V96.85h-13.6V72.61a9.23,9.23,0,0,0-2.28-6.68,9.54,9.54,0,0,0-12.56,0,9.23,9.23,0,0,0-2.28,6.68V96.85H447V52.21h13.68v5.6a14.8,14.8,0,0,1,5.44-4.44,17.17,17.17,0,0,1,7.6-1.64,18.49,18.49,0,0,1,9,2.16,15.51,15.51,0,0,1,6.2,6.16,18.13,18.13,0,0,1,6.32-6A17.17,17.17,0,0,1,504,51.73Q512.29,51.73,517.21,56.77Z"/><path class="cls-1" d="M559,96.85l-13.6-18.72V96.85H531.73V37.65h13.68V70.37l13.52-18.16h16.88l-18.56,22.4L576,96.85Z"/><path class="cls-1" d="M582.17,45.45a6.86,6.86,0,0,1-2.28-5.24,7,7,0,0,1,2.28-5.32,8.31,8.31,0,0,1,5.88-2.12,8.19,8.19,0,0,1,5.8,2.12,7,7,0,0,1,2.28,5.32,6.86,6.86,0,0,1-2.28,5.24,8.15,8.15,0,0,1-5.8,2.12A8.26,8.26,0,0,1,582.17,45.45Zm12.68,6.76V96.85H581.17V52.21Z"/><path class="cls-1" d="M629.65,85.25v11.6h-7q-7.44,0-11.6-3.64t-4.16-11.88V63.57h-5.44V52.21h5.44V41.33h13.68V52.21h9V63.57h-9V81.49a3.73,3.73,0,0,0,1,2.88,4.67,4.67,0,0,0,3.2.88Z"/><path class="cls-1" d="M637.77,95.37a6.86,6.86,0,0,1-2.28-5.24,7.09,7.09,0,0,1,2.28-5.36,8.2,8.2,0,0,1,5.88-2.16,8.09,8.09,0,0,1,5.8,2.16,7.09,7.09,0,0,1,2.28,5.36,6.86,6.86,0,0,1-2.28,5.24,8.15,8.15,0,0,1-5.8,2.12A8.26,8.26,0,0,1,637.77,95.37Z"/><path class="cls-1" d="M660.81,45.45a6.86,6.86,0,0,1-2.28-5.24,7,7,0,0,1,2.28-5.32,8.31,8.31,0,0,1,5.88-2.12,8.19,8.19,0,0,1,5.8,2.12,7,7,0,0,1,2.28,5.32,6.86,6.86,0,0,1-2.28,5.24,8.15,8.15,0,0,1-5.8,2.12A8.26,8.26,0,0,1,660.81,45.45Zm12.68,6.76V96.85H659.81V52.21Z"/><path class="cls-1" d="M703.09,53.85a15.51,15.51,0,0,1,8-2.12V66.21h-3.76c-3.41,0-6,.74-7.68,2.2s-2.56,4-2.56,7.72V96.85H683.41V52.21h13.68v7.44A18.14,18.14,0,0,1,703.09,53.85Z"/><path class="cls-1" d="M132.61,31.76l-.8-1.14-.68-.94a72.51,72.51,0,0,0-20.24-18.76l-.22-.13a72.63,72.63,0,0,0-76.18,0l-.22.13A73.27,73.27,0,0,0,14,29.68c-.69.95-1.36,1.9-2,2.88C11.06,34,10.16,35.48,9.31,37a72.66,72.66,0,0,0,0,71.17c.85,1.5,1.75,3,2.7,4.42.61.91,1.23,1.81,1.87,2.69a72.88,72.88,0,0,0,14.19,14.63c1.79,1.39,3.65,2.7,5.56,3.93l.31.2a72,72,0,0,0,30.53,10.67c.88-2.33,1.45-4.37,2.31-7.43,1.17-4.17,1.32-5.41,1.18-6.88a16.24,16.24,0,0,0-.68-3.24,19.52,19.52,0,0,0-2.1-4.36,47.34,47.34,0,0,0-4.32-5.53c-2.27-2.68-2.73-3-3.44-4.31a15.73,15.73,0,0,1-1.54-4.2c-1.3-5.88-1.22-17-1.2-17.91,5.45,5.55,9.43,9.46,11.9,11.61a12,12,0,0,1,2.76,3.28,11.44,11.44,0,0,1,1.32,4.38,36.31,36.31,0,0,1-.21,9.65.72.72,0,0,0,.63.83h0a.73.73,0,0,0,.82-.67c.12-1.85.32-3.39.51-4.55a22,22,0,0,1,1.39-5.71,19.76,19.76,0,0,1,2.58-4.22c2.19-2.85,4.07-4.17,7-6.83,1.49-1.37,3.66-3.41,6.2-6a32.84,32.84,0,0,1,.34,8.65,22.1,22.1,0,0,1-1.74,7.62,25.3,25.3,0,0,1-5.48,7.46c-2.5,2.56-3.14,2.48-5.67,5.32a22.18,22.18,0,0,0-3.71,5.28,19.78,19.78,0,0,0-1.38,4c-1.34,5.17-2.3,9.5-2.58,10.7-.23,1-.52,2.13-.91,3.44,1.38.07,2.76.11,4.15.11A72.27,72.27,0,0,0,111.21,134q1.88-1.18,3.65-2.46c1.13-.8,2.23-1.64,3.3-2.51a73.53,73.53,0,0,0,10.78-10.75c.8-1,1.56-2,2.3-3l0,0a72.64,72.64,0,0,0,1.33-83.52ZM89.08,47.47c.61,3.71,1,5.87.46,8.62a18.93,18.93,0,0,1-3.13,7.25c-1.37,2.11-2.3,2.85-6.48,7.3-2.06,2.18-3.7,4-4.77,5.18a42.19,42.19,0,0,1-.37-6.63,31.81,31.81,0,0,1,.8-7.26,22.4,22.4,0,0,1,1.81-5.21c.66-1.33,2.09-3.15,4.91-6.74a40.46,40.46,0,0,0,3.4-4.58,31.09,31.09,0,0,0,2-3.94A53.11,53.11,0,0,1,89.08,47.47ZM59.78,32.39a30.77,30.77,0,0,1,.81-6.2c.25-1,.5-1.88.71-2.51,2.11,2.78,3.89,4.91,5.11,6.33,2.22,2.59,3.72,4.13,4.46,6.78a17.74,17.74,0,0,1,.44,2.7,45.9,45.9,0,0,1,.31,6.63c0,1.35-.06,3.11-.21,5.17-.7-.66-1.87-1.75-3.34-3.1-3.66-3.38-4.21-3.83-5.1-5a15.53,15.53,0,0,1-2.74-5.12A17.21,17.21,0,0,1,59.78,32.39ZM71.19,93c-.15,2-.38,4.58-.74,7.69-.82-.71-2.06-1.8-3.45-3.25a66.65,66.65,0,0,1-5.41-6.63,41.91,41.91,0,0,1-2.88-4c-1.08-2-1.45-3.69-2.12-7A58.5,58.5,0,0,1,55.5,71.3c-.1-1.74-.12-3.21-.1-4.3,2.89,2.69,5.29,5,7.13,6.82a48.34,48.34,0,0,1,5.26,5.73c1.65,2.2,2.67,3.56,3.3,5.61C71.51,86.53,71.62,87.72,71.19,93Zm.35-21.76a39.45,39.45,0,0,1-.66,4.6c-2.38-2.58-4.38-4.6-5.76-6a41,41,0,0,1-4.39-4.66,19.94,19.94,0,0,1-3-4.9c-.06-.14-.23-.6-.42-1.24-.73-2.51-.89-5.21-.55-11,.06-1.17.17-2.76.34-4.66.4.6,1,1.45,1.74,2.41a38,38,0,0,0,2.58,3c2.81,3,3.15,3,5,5.16a21.14,21.14,0,0,1,2.85,3.78,18,18,0,0,1,1.44,3.39A25.15,25.15,0,0,1,71.54,71.28Zm1-38.84A28.23,28.23,0,0,1,68,26.19c-1.56-2.86-2.67-4.9-2.34-7.54a16.7,16.7,0,0,1,1.68-4.76c.53-1.14,1-1.83,1.92-3.81.53-1.11.94-2,1.21-2.65A20.54,20.54,0,0,1,76.38,14a12.21,12.21,0,0,1,2,6.05,12.69,12.69,0,0,1-1.52,5.65A27.37,27.37,0,0,1,72.58,32.44Zm2.49,4.42a16.46,16.46,0,0,1,1-2.79c.25-.52.47-.91.64-1.2.9-1.52,1.35-2.28,3-4.71a49.63,49.63,0,0,0,2.88-4.73,16.21,16.21,0,0,1,2.71,5.39,16.43,16.43,0,0,1,0,8.24,19.38,19.38,0,0,1-3.09,6.47,31.58,31.58,0,0,1-5,5.68c-.92.84-1.73,1.51-2.33,2-.14-2.54-.2-4.7-.24-6.35C74.5,39.92,74.63,38.49,75.07,36.86Zm15.41,39.2c-.07,3.2-.11,4.83-.7,6.76A20.61,20.61,0,0,1,85.57,90a51.38,51.38,0,0,1-7.7,7.51c-1.35,1.15-2.51,2.07-3.3,2.68.12-3.85.18-6.63.22-8.44a31.85,31.85,0,0,1,.51-5.8A15.36,15.36,0,0,1,76.42,82c.39-.81.92-1.69,4.11-5,3.36-3.49,3.45-3.23,5.23-5.26a40.1,40.1,0,0,1,3.08-3.19c.52-.48,1-.87,1.26-1.12A68.27,68.27,0,0,1,90.48,76.06Z"/></g></g></svg>