<svg xmlns="http://www.w3.org/2000/svg" xmlns:xlink="http://www.w3.org/1999/xlink" viewBox="0 0 1424.28 1474.42"><defs><linearGradient id="linear-gradient" x1="753.58" y1="79.77" x2="1444.55" y2="770.74" gradientUnits="userSpaceOnUse"><stop offset="0" stop-color="#f10049"/><stop offset="1" stop-color="#f47081"/></linearGradient><linearGradient id="linear-gradient-2" x1="840.94" y1="938.21" x2="1357.18" y2="1454.45" xlink:href="#linear-gradient"/><linearGradient id="linear-gradient-3" x1="-20.27" y1="671.32" x2="670.7" y2="1362.29" gradientTransform="translate(650.43 2033.61) rotate(180)" xlink:href="#linear-gradient"/><linearGradient id="linear-gradient-4" x1="67.1" y1="-12.39" x2="583.34" y2="503.85" gradientTransform="translate(650.43 491.47) rotate(180)" xlink:href="#linear-gradient"/><linearGradient id="linear-gradient-5" x1="753.58" y1="112.13" x2="1444.55" y2="803.1" xlink:href="#linear-gradient"/><linearGradient id="linear-gradient-6" x1="840.94" y1="970.57" x2="1357.18" y2="1486.8" xlink:href="#linear-gradient"/><linearGradient id="linear-gradient-7" x1="-20.27" y1="703.67" x2="670.7" y2="1394.64" gradientTransform="translate(650.43 2098.32) rotate(180)" xlink:href="#linear-gradient"/><linearGradient id="linear-gradient-8" x1="67.1" y1="19.97" x2="583.34" y2="536.21" gradientTransform="translate(650.43 556.17) rotate(180)" xlink:href="#linear-gradient"/></defs><g id="Layer_2" data-name="Layer 2"><g id="Layer_1-2" data-name="Layer 1"><g id="dashboard"><g id="dashboard-2" data-name="dashboard"><rect x="803.18" y="32.93" width="591.76" height="784.67" rx="61" style="fill:none;stroke-miterlimit:10;stroke-width:54.4266733450364px;stroke:url(#linear-gradient)"/><rect x="803.18" y="979.93" width="591.76" height="432.8" rx="64.07" style="fill:none;stroke-miterlimit:10;stroke-width:58.6706471443176px;stroke:url(#linear-gradient-2)"/><rect x="29.34" y="624.47" width="591.76" height="784.67" rx="61" transform="translate(650.43 2033.61) rotate(-180)" style="fill:none;stroke-miterlimit:10;stroke-width:54.4266733450364px;stroke:url(#linear-gradient-3)"/><rect x="29.34" y="29.34" width="591.76" height="432.8" rx="64.07" transform="translate(650.43 491.47) rotate(-180)" style="fill:none;stroke-miterlimit:10;stroke-width:58.6706471443176px;stroke:url(#linear-gradient-4)"/></g><g id="dashboard-3" data-name="dashboard" style="opacity:0.35000000000000003"><rect x="803.18" y="65.28" width="591.76" height="784.67" rx="61" style="fill:none;stroke-miterlimit:10;stroke-width:54.4266733450364px;stroke:url(#linear-gradient-5)"/><rect x="803.18" y="1012.29" width="591.76" height="432.8" rx="64.07" style="fill:none;stroke-miterlimit:10;stroke-width:58.6706471443176px;stroke:url(#linear-gradient-6)"/><rect x="29.34" y="656.82" width="591.76" height="784.67" rx="61" transform="translate(650.43 2098.32) rotate(-180)" style="fill:none;stroke-miterlimit:10;stroke-width:54.4266733450364px;stroke:url(#linear-gradient-7)"/><rect x="29.34" y="61.69" width="591.76" height="432.8" rx="64.07" transform="translate(650.43 556.17) rotate(-180)" style="fill:none;stroke-miterlimit:10;stroke-width:58.6706471443176px;stroke:url(#linear-gradient-8)"/></g></g></g></g></svg>