<svg xmlns="http://www.w3.org/2000/svg" xmlns:xlink="http://www.w3.org/1999/xlink" viewBox="0 0 1463.85 1386.94"><defs><linearGradient id="linear-gradient" y1="1134.29" x2="1463.85" y2="1134.29" gradientUnits="userSpaceOnUse"><stop offset="0" stop-color="#f10049"/><stop offset="1" stop-color="#f47081"/></linearGradient><linearGradient id="linear-gradient-2" x1="492.3" y1="736.44" x2="971.55" y2="257.19" xlink:href="#linear-gradient"/><linearGradient id="linear-gradient-3" x1="402.53" y1="801.8" x2="1061.32" y2="801.8" xlink:href="#linear-gradient"/><linearGradient id="linear-gradient-4" y1="1104.29" x2="1463.85" y2="1104.29" xlink:href="#linear-gradient"/><linearGradient id="linear-gradient-5" x1="492.3" y1="706.44" x2="971.55" y2="227.19" xlink:href="#linear-gradient"/><linearGradient id="linear-gradient-6" x1="402.53" y1="771.8" x2="1061.32" y2="771.8" xlink:href="#linear-gradient"/></defs><g id="Layer_2" data-name="Layer 2"><g id="Layer_1-2" data-name="Layer 1"><g id="download"><g id="download-2" data-name="download" style="opacity:0.35000000000000003"><path d="M30,911.64v350.75a94.55,94.55,0,0,0,94.55,94.55H1339.3a94.55,94.55,0,0,0,94.55-94.55V911.64" style="fill:none;stroke-linecap:round;stroke-linejoin:round;stroke-width:60px;stroke:url(#linear-gradient)"/><line x1="731.92" y1="60" x2="731.92" y2="933.63" style="fill:none;stroke-linecap:round;stroke-linejoin:round;stroke-width:60px;stroke:url(#linear-gradient-2)"/><path d="M432.53,664.17,689.89,921.54a61.1,61.1,0,0,0,86.41,0l255-255" style="fill:none;stroke-linecap:round;stroke-linejoin:round;stroke-width:60px;stroke:url(#linear-gradient-3)"/></g><g id="download-3" data-name="download"><path d="M30,881.64v350.75a94.55,94.55,0,0,0,94.55,94.55H1339.3a94.55,94.55,0,0,0,94.55-94.55V881.64" style="fill:none;stroke-linecap:round;stroke-linejoin:round;stroke-width:60px;stroke:url(#linear-gradient-4)"/><line x1="731.92" y1="30" x2="731.92" y2="903.63" style="fill:none;stroke-linecap:round;stroke-linejoin:round;stroke-width:60px;stroke:url(#linear-gradient-5)"/><path d="M432.53,634.17,689.89,891.54a61.1,61.1,0,0,0,86.41,0l255-255" style="fill:none;stroke-linecap:round;stroke-linejoin:round;stroke-width:60px;stroke:url(#linear-gradient-6)"/></g></g></g></g></svg>