<svg xmlns="http://www.w3.org/2000/svg" xmlns:xlink="http://www.w3.org/1999/xlink" viewBox="0 0 1444.17 1477.7"><defs><linearGradient id="linear-gradient" x1="157.18" y1="-61.02" x2="1211.25" y2="993.05" gradientUnits="userSpaceOnUse"><stop offset="0" stop-color="#f10049"/><stop offset="1" stop-color="#f47081"/></linearGradient><linearGradient id="linear-gradient-2" x1="157.18" y1="-100.72" x2="1211.25" y2="953.36" xlink:href="#linear-gradient"/></defs><g id="Layer_2" data-name="Layer 2"><g id="Layer_1-2" data-name="Layer 1"><g id="filter"><path id="filter-2" data-name="filter" d="M550.89,872.64v527.9c0,36.84,40.4,59.41,71.77,40.09l251.87-155.1a47.07,47.07,0,0,0,22.4-40.09v-373A86.44,86.44,0,0,1,924.71,809l446.54-412.54a133.52,133.52,0,0,0,42.92-98.08V136.08a66.38,66.38,0,0,0-66.38-66.38H96.38A66.38,66.38,0,0,0,30,136.08v162a133.57,133.57,0,0,0,43.26,98.4L522.88,808.94A86.43,86.43,0,0,1,550.89,872.64Z" style="fill:none;stroke-linecap:round;stroke-linejoin:round;stroke-width:60px;opacity:0.35000000000000003;stroke:url(#linear-gradient)"/><path id="filter-3" data-name="filter" d="M550.89,833v527.89c0,36.84,40.4,59.41,71.77,40.1l251.87-155.1a47.09,47.09,0,0,0,22.4-40.1v-373a86.44,86.44,0,0,1,27.78-63.5l446.54-412.53a133.56,133.56,0,0,0,42.92-98.09V96.38A66.38,66.38,0,0,0,1347.79,30H96.38A66.38,66.38,0,0,0,30,96.38v162a133.57,133.57,0,0,0,43.26,98.4L522.88,769.24A86.47,86.47,0,0,1,550.89,833Z" style="fill:none;stroke-linecap:round;stroke-linejoin:round;stroke-width:60px;stroke:url(#linear-gradient-2)"/></g></g></g></svg>