<svg xmlns="http://www.w3.org/2000/svg" xmlns:xlink="http://www.w3.org/1999/xlink" viewBox="0 0 1466.89 1409.21"><defs><linearGradient id="linear-gradient" x1="262.98" y1="10.23" x2="1203.91" y2="951.17" gradientUnits="userSpaceOnUse"><stop offset="0" stop-color="#f10049"/><stop offset="1" stop-color="#f47081"/></linearGradient><linearGradient id="linear-gradient-2" x1="262.98" y1="-32.42" x2="1203.91" y2="908.52" xlink:href="#linear-gradient"/></defs><g id="Layer_2" data-name="Layer 2"><g id="Layer_1-2" data-name="Layer 1"><g id="heart"><path id="heart-2" data-name="heart" d="M733.45,1379.21,129.59,693.64C20.32,569.58,8.7,422.75,57.42,300.58,163.72,34.05,523.85-8.28,691.81,224.38l41.64,57.67,41.63-57.67c168-232.66,528.09-190.33,634.39,76.2,48.72,122.17,37.11,269-72.17,393.06Z" style="fill:none;stroke-linecap:round;stroke-linejoin:round;stroke-width:60px;opacity:0.35000000000000003;stroke:url(#linear-gradient)"/><path id="heart-3" data-name="heart" d="M733.45,1336.56,129.59,651C20.32,526.93,8.7,380.1,57.42,257.93,163.72-8.61,523.85-50.94,691.81,181.73l41.64,57.66,41.63-57.66c168-232.67,528.09-190.34,634.39,76.2,48.72,122.17,37.11,269-72.17,393.06Z" style="fill:none;stroke-linecap:round;stroke-linejoin:round;stroke-width:60px;stroke:url(#linear-gradient-2)"/></g></g></g></svg>