<svg xmlns="http://www.w3.org/2000/svg" xmlns:xlink="http://www.w3.org/1999/xlink" viewBox="0 0 1376.4 1489.92"><defs><linearGradient id="linear-gradient" x1="242.27" y1="651.76" x2="1121.54" y2="1531.03" gradientUnits="userSpaceOnUse"><stop offset="0" stop-color="#f10049"/><stop offset="1" stop-color="#f47081"/></linearGradient><linearGradient id="linear-gradient-2" x1="329.51" y1="360.32" x2="1046.89" y2="1077.69" xlink:href="#linear-gradient"/><linearGradient id="linear-gradient-3" x1="458.59" y1="1371.12" x2="912.53" y2="1109.03" xlink:href="#linear-gradient"/><linearGradient id="linear-gradient-4" x1="242.27" y1="619.66" x2="1121.54" y2="1498.93" xlink:href="#linear-gradient"/><linearGradient id="linear-gradient-5" x1="329.51" y1="328.21" x2="1046.89" y2="1045.59" xlink:href="#linear-gradient"/><linearGradient id="linear-gradient-6" x1="458.59" y1="1339.02" x2="912.53" y2="1076.93" xlink:href="#linear-gradient"/></defs><g id="Layer_2" data-name="Layer 2"><g id="Layer_1-2" data-name="Layer 1"><g id="home"><g id="home-2" data-name="home" style="opacity:0.35000000000000003"><path d="M239.81,1460.42a64.35,64.35,0,0,1-64.21-64.35V760H1188.16v636.13a64.35,64.35,0,0,1-64.12,64.35Z" style="fill:none;stroke-linecap:round;stroke-linejoin:round;stroke-width:58.826549485449px;stroke:url(#linear-gradient)"/><path d="M718.52,73.55,1334.88,689.9c25.87,25.88,7.55,70.13-29.05,70.13H70.58c-36.64,0-54.95-44.34-29-70.19L660.49,73.49A41.07,41.07,0,0,1,718.52,73.55Z" style="fill:none;stroke-linecap:round;stroke-linejoin:round;stroke-width:58.826549485449px;stroke:url(#linear-gradient-2)"/><path d="M542,1456.73V1043.15a39.45,39.45,0,0,1,39.45-39.45H795a39.44,39.44,0,0,1,39.44,39.45v413.58" style="fill:none;stroke-linecap:round;stroke-linejoin:round;stroke-width:58.826549485449px;stroke:url(#linear-gradient-3)"/></g><g id="home-3" data-name="home"><path d="M239.81,1428.32A64.35,64.35,0,0,1,175.6,1364v-636H1188.16v636.13a64.35,64.35,0,0,1-64.12,64.35Z" style="fill:none;stroke-linecap:round;stroke-linejoin:round;stroke-width:58.826549485449px;stroke:url(#linear-gradient-4)"/><path d="M718.52,41.45,1334.88,657.8c25.87,25.88,7.55,70.13-29.05,70.13H70.58c-36.64,0-54.95-44.34-29-70.19L660.49,41.39A41.07,41.07,0,0,1,718.52,41.45Z" style="fill:none;stroke-linecap:round;stroke-linejoin:round;stroke-width:58.826549485449px;stroke:url(#linear-gradient-5)"/><path d="M542,1424.63V1011.05a39.45,39.45,0,0,1,39.45-39.45H795a39.44,39.44,0,0,1,39.44,39.45v413.58" style="fill:none;stroke-linecap:round;stroke-linejoin:round;stroke-width:58.826549485449px;stroke:url(#linear-gradient-6)"/></g></g></g></g></svg>