<svg xmlns="http://www.w3.org/2000/svg" xmlns:xlink="http://www.w3.org/1999/xlink" viewBox="0 0 1488 1045.54"><defs><linearGradient id="linear-gradient" x1="146.01" y1="-60.65" x2="1341.99" y2="1135.33" gradientUnits="userSpaceOnUse"><stop offset="0" stop-color="#f10049"/><stop offset="1" stop-color="#f47081"/></linearGradient><linearGradient id="linear-gradient-2" x1="367.73" y1="-267.33" x2="1120.27" y2="485.21" xlink:href="#linear-gradient"/><linearGradient id="linear-gradient-3" x1="146.01" y1="-89.79" x2="1341.99" y2="1106.19" xlink:href="#linear-gradient"/><linearGradient id="linear-gradient-4" x1="367.73" y1="-296.47" x2="1120.27" y2="456.07" xlink:href="#linear-gradient"/></defs><g id="Layer_2" data-name="Layer 2"><g id="Layer_1-2" data-name="Layer 1"><g id="mail"><g id="mail-2" data-name="mail" style="opacity:0.45"><rect x="30" y="59.14" width="1428" height="956.4" rx="65.98" style="fill:none;stroke-miterlimit:10;stroke-width:60px;stroke:url(#linear-gradient)"/><path d="M811.28,660.64l611.79-520.87c25.45-32.83,2-80.58-39.49-80.58H104.42c-41.54,0-64.94,47.75-39.49,80.58L676.72,660.64A103.77,103.77,0,0,0,811.28,660.64Z" style="fill:none;stroke-miterlimit:10;stroke-width:60px;stroke:url(#linear-gradient-2)"/></g><g id="mail-3" data-name="mail"><rect x="30" y="30" width="1428" height="956.4" rx="65.98" style="fill:none;stroke-miterlimit:10;stroke-width:60px;stroke:url(#linear-gradient-3)"/><path d="M811.28,631.5l611.79-520.87c25.45-32.83,2-80.58-39.49-80.58H104.42c-41.54,0-64.94,47.75-39.49,80.58L676.72,631.5A103.77,103.77,0,0,0,811.28,631.5Z" style="fill:none;stroke-miterlimit:10;stroke-width:60px;stroke:url(#linear-gradient-4)"/></g></g></g></g></svg>