<svg xmlns="http://www.w3.org/2000/svg" xmlns:xlink="http://www.w3.org/1999/xlink" viewBox="0 0 1132.72 1473.93"><defs><linearGradient id="linear-gradient" x1="-41.82" y1="149.77" x2="1174.54" y2="1366.13" gradientUnits="userSpaceOnUse"><stop offset="0" stop-color="#f10049"/><stop offset="1" stop-color="#f47081"/></linearGradient><linearGradient id="linear-gradient-2" x1="-41.82" y1="107.81" x2="1174.54" y2="1324.17" xlink:href="#linear-gradient"/></defs><g id="Layer_2" data-name="Layer 2"><g id="Layer_1-2" data-name="Layer 1"><g id="mark"><path id="mark-2" data-name="mark" d="M967,1424.51l-347.63-291a82.65,82.65,0,0,0-106.09,0l-347.62,291c-53.8,45-135.69,6.77-135.69-63.38V154.61A82.64,82.64,0,0,1,112.65,72h907.42a82.65,82.65,0,0,1,82.65,82.64V1361.13C1102.72,1431.28,1020.82,1469.53,967,1424.51Z" style="fill:none;stroke-linecap:round;stroke-linejoin:round;stroke-width:60px;opacity:0.35000000000000003;stroke:url(#linear-gradient)"/><path id="mark-3" data-name="mark" d="M967,1382.54l-347.63-291a82.63,82.63,0,0,0-106.09,0l-347.62,291c-53.8,45-135.69,6.78-135.69-63.38V112.65A82.65,82.65,0,0,1,112.65,30h907.42a82.65,82.65,0,0,1,82.65,82.65V1319.16C1102.72,1389.32,1020.82,1427.57,967,1382.54Z" style="fill:none;stroke-linecap:round;stroke-linejoin:round;stroke-width:60px;stroke:url(#linear-gradient-2)"/></g></g></g></svg>