<svg xmlns="http://www.w3.org/2000/svg" xmlns:xlink="http://www.w3.org/1999/xlink" viewBox="0 0 1229.66 1489.47"><defs><linearGradient id="linear-gradient" x1="472.88" y1="1151.93" x2="760.94" y2="1440" gradientUnits="userSpaceOnUse"><stop offset="0" stop-color="#f10049"/><stop offset="1" stop-color="#f47081"/></linearGradient><linearGradient id="linear-gradient-2" x1="118.2" y1="328.19" x2="1113.22" y2="1323.21" xlink:href="#linear-gradient"/><linearGradient id="linear-gradient-3" x1="472.88" y1="1117.74" x2="760.94" y2="1405.8" xlink:href="#linear-gradient"/><linearGradient id="linear-gradient-4" x1="118.2" y1="293.99" x2="1113.22" y2="1289.01" xlink:href="#linear-gradient"/></defs><g id="Layer_2" data-name="Layer 2"><g id="Layer_1-2" data-name="Layer 1"><g id="notification"><g id="notification-2" data-name="notification" style="opacity:0.45"><path d="M843.67,1234.67H783.58a169.87,169.87,0,0,1-1.16,59.52c-15.38,77.3-83.75,135.75-165.51,135.75s-150.14-58.45-165.52-135.75a169.87,169.87,0,0,1-1.16-59.52H390.14a232.67,232.67,0,0,0,.85,59.52,228.33,228.33,0,0,0,451.84,0,232,232,0,0,0,.84-59.52Z" style="fill:url(#linear-gradient)"/><path d="M1229.41,1136.55a173.37,173.37,0,0,0-11.31-49c-11.17-28.37-27.4-46.19-36.35-54.48a203.68,203.68,0,0,1-41.59-53.32,262.8,262.8,0,0,1-24.26-64.53c-.22-.95-.44-1.9-.65-2.86a227.67,227.67,0,0,1-5.09-48.48V527.73A493.66,493.66,0,0,0,161.89,335.62a490.51,490.51,0,0,0-38.8,192.11v346a222.46,222.46,0,0,1-4.89,38.65c-.21,1-.41,1.91-.64,2.88A262.91,262.91,0,0,1,93.29,979.8a201,201,0,0,1-35.79,47.75q-2.85,2.82-5.8,5.57c-18.87,17.49-50.23,55.54-51.7,116,0,1.49.1,3,.19,4.44,4.39,78.27,69.45,140.59,148.81,140.59h931.6c79.35,0,144.41-62.32,148.81-140.59.17-2.8.25-5.63.25-8.47S1229.58,1139.39,1229.41,1136.55Zm-148.81,98.12H149A89.64,89.64,0,0,1,59.55,1149q-.09-1.92-.09-3.87a89.45,89.45,0,0,1,37.12-72.53A271,271,0,0,0,123.09,1043a252.23,252.23,0,0,0,22.72-35.16q3.09-5.81,5.95-11.72a319.67,319.67,0,0,0,23.79-67.41c.28-1.18.54-2.35.8-3.53a284.82,284.82,0,0,0,6.27-50.34V527.73c0-239.31,194.7-434,434-434s434,194.7,434,434v336.2a286.54,286.54,0,0,0,6.46,61.19c.26,1.18.52,2.36.8,3.54a321.33,321.33,0,0,0,23.79,67.43q2.86,5.91,6,11.71a253.23,253.23,0,0,0,22.52,34.91,275,275,0,0,0,31.13,34.07c5.49,5.08,15.5,16.23,22.29,34.72a88.71,88.71,0,0,1,6.44,29.32c.08,1.43.11,2.87.11,4.31A89.64,89.64,0,0,1,1080.6,1234.67Z" style="fill:url(#linear-gradient-2)"/></g><g id="notification-3" data-name="notification"><path d="M843.67,1200.47H783.58a169.87,169.87,0,0,1-1.16,59.52c-15.38,77.3-83.75,135.75-165.51,135.75S466.77,1337.29,451.39,1260a169.87,169.87,0,0,1-1.16-59.52H390.14A232.67,232.67,0,0,0,391,1260a228.33,228.33,0,0,0,451.84,0,232,232,0,0,0,.84-59.52Z" style="fill:url(#linear-gradient-3)"/><path d="M1229.41,1102.36a173.44,173.44,0,0,0-11.31-49c-11.17-28.36-27.4-46.19-36.35-54.48a203.52,203.52,0,0,1-41.59-53.32,262.65,262.65,0,0,1-24.26-64.53c-.22-.94-.44-1.9-.65-2.86a227.53,227.53,0,0,1-5.09-48.48V493.53a493.54,493.54,0,1,0-987.07,0v346a222.33,222.33,0,0,1-4.89,38.65c-.21.95-.41,1.92-.64,2.88A262.76,262.76,0,0,1,93.29,945.6,200.82,200.82,0,0,1,57.5,993.35q-2.85,2.82-5.8,5.57C32.83,1016.41,1.47,1054.46,0,1115c0,1.49.1,3,.19,4.44C4.58,1197.67,69.64,1260,149,1260h931.6c79.35,0,144.41-62.32,148.81-140.59.17-2.8.25-5.63.25-8.46S1229.58,1105.19,1229.41,1102.36Zm-148.81,98.11H149a89.64,89.64,0,0,1-89.45-85.66q-.09-1.92-.09-3.87a89.47,89.47,0,0,1,37.12-72.54,271.79,271.79,0,0,0,26.51-29.63,252.82,252.82,0,0,0,22.72-35.16q3.09-5.82,5.95-11.73a319.28,319.28,0,0,0,23.79-67.41c.28-1.18.54-2.35.8-3.53a284.7,284.7,0,0,0,6.27-50.34V493.53c0-239.31,194.7-434,434-434s434,194.7,434,434v336.2a286.47,286.47,0,0,0,6.46,61.19c.26,1.18.52,2.36.8,3.54a320.93,320.93,0,0,0,23.79,67.43q2.86,5.91,6,11.72a253.13,253.13,0,0,0,22.52,34.9,275,275,0,0,0,31.13,34.07c5.49,5.08,15.5,16.23,22.29,34.73a88.6,88.6,0,0,1,6.44,29.31c.08,1.43.11,2.87.11,4.32A89.64,89.64,0,0,1,1080.6,1200.47Z" style="fill:url(#linear-gradient-4)"/></g></g></g></g></svg>