<svg xmlns="http://www.w3.org/2000/svg" xmlns:xlink="http://www.w3.org/1999/xlink" viewBox="0 0 1456.61 1494.25"><defs><linearGradient id="linear-gradient" x1="342.54" y1="500.66" x2="989.13" y2="1147.25" gradientUnits="userSpaceOnUse"><stop offset="0" stop-color="#f10049"/><stop offset="1" stop-color="#f47081"/></linearGradient><linearGradient id="linear-gradient-2" x1="1031.75" y1="239.95" x2="1226.6" y2="434.8" xlink:href="#linear-gradient"/><linearGradient id="linear-gradient-3" x1="342.54" y1="466.46" x2="989.13" y2="1113.06" xlink:href="#linear-gradient"/><linearGradient id="linear-gradient-4" x1="1031.75" y1="205.75" x2="1226.6" y2="400.6" xlink:href="#linear-gradient"/></defs><g id="Layer_2" data-name="Layer 2"><g id="Layer_1-2" data-name="Layer 1"><g id="password"><g id="password-2" data-name="password" style="opacity:0.45"><path d="M0,1459.1l7.75-225.27a34,34,0,0,1,9.81-22.73l544.3-550A34,34,0,0,0,570.15,627h0A465.56,465.56,0,0,1,681.36,161.83,457.35,457.35,0,0,1,998.05,34.26h.54c2.44,0,4.87-.06,7.31-.06a453.73,453.73,0,0,1,267.41,87.19,457.6,457.6,0,0,1-52.69,768.72,463,463,0,0,1-223,57.4h-4.81a467.74,467.74,0,0,1-132.92-19.29h0a34,34,0,0,0-32.44,7.37L714.84,1037.41a34,34,0,0,1-21.28,8.73l-75.33,3.35A34,34,0,0,0,586,1079.8l-6.76,62.71a34,34,0,0,1-33.79,30.34H500.05a34,34,0,0,0-33.54,28.49h0c-4.31,26.37-8.18,50.35-11.76,73.46a34,34,0,0,1-29.1,28.47l-66,8.78a34,34,0,0,0-29.5,33.68v61.76a34,34,0,0,1-9.3,23.36c-13.52,14.29-27.18,28.51-40.51,42.4l-10.13,10.54a34,34,0,0,1-24.52,10.46H34A34,34,0,0,1,0,1459.1ZM561.58,752.2,82.06,1237.62a34,34,0,0,0-9.78,22.56l-5.17,132.25a34,34,0,0,0,34,35.31H217.81a34,34,0,0,0,24-10l5.17-5.17c.42-.43.83-.86,1.23-1.3l6.65-7.39a34,34,0,0,0,8.72-22.73v-93a34,34,0,0,1,29.29-33.66l58.41-8.13,25.12-3.69a34,34,0,0,0,29-33.62l10.59-80.81a34,34,0,0,1,33.41-27.81h43.19a34,34,0,0,0,33.8-30.47l5.77-55.56A34,34,0,0,1,564.5,984l55.27-2.5H670a34,34,0,0,0,23.37-9.31l27.88-26.42,64.29-59.11,16.16-15.08a61.54,61.54,0,0,1,58.62-14.28l21.88,6.13a403.39,403.39,0,0,0,115.4,16.85h.74a397.62,397.62,0,0,0,332.75-184.14l.29-.45.27-.46A396.84,396.84,0,0,0,1229,174.09l-.38-.28a384.63,384.63,0,0,0-228.36-74.53h-3.94a393.3,393.3,0,0,0-269,105.91l-.69.65-.66.68a402.9,402.9,0,0,0-92.9,403.06l5.79,19.29a61.57,61.57,0,0,1-15.15,61L608.2,705.57Z" style="fill:url(#linear-gradient)"/><path d="M1129.17,475.22c-76,0-137.84-61.84-137.84-137.85s61.83-137.85,137.84-137.85S1267,261.36,1267,337.37,1205.18,475.22,1129.17,475.22Zm0-216.84a79,79,0,1,0,79,79A79.09,79.09,0,0,0,1129.17,258.38Z" style="fill:url(#linear-gradient-2)"/></g><g id="password-3" data-name="password"><path d="M0,1424.9l7.75-225.27a34,34,0,0,1,9.81-22.73l544.3-550a34,34,0,0,0,8.27-34.07h0A465.56,465.56,0,0,1,681.36,127.63,457.35,457.35,0,0,1,998.05.06h.54c2.44,0,4.87-.06,7.31-.06a453.73,453.73,0,0,1,267.41,87.19,462.53,462.53,0,0,1,114.81,610.87A461.85,461.85,0,0,1,997.66,913.32l-3.78,0h-1A467.38,467.38,0,0,1,859.93,894h0a34,34,0,0,0-32.44,7.37L714.84,1003.21a34,34,0,0,1-21.28,8.74l-75.33,3.34A34,34,0,0,0,586,1045.6l-6.76,62.71a34,34,0,0,1-33.79,30.34H500.05a34,34,0,0,0-33.54,28.49h0c-4.31,26.37-8.18,50.35-11.76,73.46a34,34,0,0,1-29.1,28.48l-66,8.77a34,34,0,0,0-29.5,33.69v61.76a34,34,0,0,1-9.3,23.35c-13.52,14.3-27.18,28.51-40.51,42.4l-10.13,10.54a34,34,0,0,1-24.52,10.46H34A34,34,0,0,1,0,1424.9ZM561.58,718,82.06,1203.43A34,34,0,0,0,72.28,1226l-5.17,132.25a34,34,0,0,0,34,35.31H217.81a34,34,0,0,0,24-10l5.17-5.17c.42-.42.83-.85,1.23-1.3l6.65-7.39a34,34,0,0,0,8.72-22.73v-93a34,34,0,0,1,29.29-33.65l58.41-8.14,25.12-3.69a34,34,0,0,0,29-33.62L416.06,1094a34,34,0,0,1,33.41-27.81h43.19a34,34,0,0,0,33.8-30.47l5.77-55.55a34,34,0,0,1,32.27-30.44l55.27-2.5H670A34,34,0,0,0,693.36,938l27.88-26.42,64.29-59.11,16.16-15.08a61.57,61.57,0,0,1,58.62-14.28l21.88,6.13a403.39,403.39,0,0,0,115.4,16.85h.74a397.62,397.62,0,0,0,332.75-184.14l.29-.45.27-.46A396.84,396.84,0,0,0,1229,139.89l-.38-.28a384.69,384.69,0,0,0-228.36-74.52h-3.94A393.31,393.31,0,0,0,727.35,171l-.69.64-.66.69a402.88,402.88,0,0,0-92.9,403l5.79,19.29a61.57,61.57,0,0,1-15.15,61L608.2,671.38Z" style="fill:url(#linear-gradient-3)"/><path d="M1129.17,441c-76,0-137.84-61.84-137.84-137.85s61.83-137.85,137.84-137.85S1267,227.17,1267,303.18,1205.18,441,1129.17,441Zm0-216.85a79,79,0,1,0,79,79A79.09,79.09,0,0,0,1129.17,224.18Z" style="fill:url(#linear-gradient-4)"/></g></g></g></g></svg>