<svg xmlns="http://www.w3.org/2000/svg" xmlns:xlink="http://www.w3.org/1999/xlink" viewBox="0 0 1455.57 1485.93"><defs><linearGradient id="linear-gradient" x1="336.46" y1="820.5" x2="666.34" y2="1150.37" gradientUnits="userSpaceOnUse"><stop offset="0" stop-color="#f10049"/><stop offset="1" stop-color="#f47081"/></linearGradient><linearGradient id="linear-gradient-2" x1="1014.8" y1="143.19" x2="1343.88" y2="472.27" xlink:href="#linear-gradient"/><linearGradient id="linear-gradient-3" x1="336.46" y1="788.77" x2="666.34" y2="1118.65" xlink:href="#linear-gradient"/><linearGradient id="linear-gradient-4" x1="1014.8" y1="111.46" x2="1343.88" y2="440.54" xlink:href="#linear-gradient"/></defs><g id="Layer_2" data-name="Layer 2"><g id="Layer_1-2" data-name="Layer 1"><g id="pencil"><g id="pencil-2" data-name="pencil" style="opacity:0.35000000000000003"><path d="M787.52,409.25l-678.29,678.3a40,40,0,0,0-10.7,19.33L29.2,1408.8c-6.62,28.82,19.24,54.61,48,47.91l305.55-71.14A39.9,39.9,0,0,0,402,1374.89l677-677.44a40,40,0,0,0-.2-56.75L843.89,409.06A40,40,0,0,0,787.52,409.25Z" style="fill:none;stroke-linecap:round;stroke-linejoin:round;stroke-width:56.3005422324281px;stroke:url(#linear-gradient)"/><path d="M943,311.39l232.7,232.7a40,40,0,0,0,56.56,0l183.47-183.46a40,40,0,0,0,0-56.56L1183.24,71.59a40,40,0,0,0-56.53,0L943,254.79A40,40,0,0,0,943,311.39Z" style="fill:none;stroke-linecap:round;stroke-linejoin:round;stroke-width:56.3005422324281px;stroke:url(#linear-gradient-2)"/></g><g id="pencil-3" data-name="pencil"><path d="M787.52,377.52l-678.29,678.3a40,40,0,0,0-10.7,19.33L29.2,1377.07a40,40,0,0,0,48,47.91l305.55-71.13A40.07,40.07,0,0,0,402,1343.17l677-677.45a40,40,0,0,0-.2-56.74L843.89,377.33A40,40,0,0,0,787.52,377.52Z" style="fill:none;stroke-linecap:round;stroke-linejoin:round;stroke-width:56.3005422324281px;stroke:url(#linear-gradient-3)"/><path d="M943,279.66l232.7,232.71a40,40,0,0,0,56.56,0L1415.71,328.9a40,40,0,0,0,0-56.56L1183.24,39.86a40,40,0,0,0-56.53,0L943,223.06A40,40,0,0,0,943,279.66Z" style="fill:none;stroke-linecap:round;stroke-linejoin:round;stroke-width:56.3005422324281px;stroke:url(#linear-gradient-4)"/></g></g></g></g></svg>