<svg xmlns="http://www.w3.org/2000/svg" xmlns:xlink="http://www.w3.org/1999/xlink" viewBox="0 0 1433.95 1483.9"><defs><linearGradient id="linear-gradient" y1="864.99" x2="1433.95" y2="864.99" gradientUnits="userSpaceOnUse"><stop offset="0" stop-color="#f10049"/><stop offset="1" stop-color="#f47081"/></linearGradient><linearGradient id="linear-gradient-2" x1="545.97" y1="195.71" x2="887.98" y2="537.71" xlink:href="#linear-gradient"/><linearGradient id="linear-gradient-3" y1="827.85" x2="1433.95" y2="827.85" xlink:href="#linear-gradient"/><linearGradient id="linear-gradient-4" x1="545.97" y1="158.57" x2="887.98" y2="500.58" xlink:href="#linear-gradient"/></defs><g id="Layer_2" data-name="Layer 2"><g id="Layer_1-2" data-name="Layer 1"><g id="power"><g id="power-2" data-name="power" style="opacity:0.35000000000000003"><path d="M1197.59,276.07C1324.93,400.77,1404,574.62,1404,766.93c0,379.41-307.57,687-687,687s-687-307.56-687-687c0-191.7,78.52-365.06,205.15-489.67" style="fill:none;stroke-linecap:round;stroke-linejoin:round;stroke-width:60px;stroke:url(#linear-gradient)"/><line x1="716.97" y1="67.13" x2="716.97" y2="666.29" style="fill:none;stroke-linecap:round;stroke-linejoin:round;stroke-width:60px;stroke:url(#linear-gradient-2)"/></g><g id="power-3" data-name="power"><path d="M1197.59,238.94C1324.93,363.64,1404,537.49,1404,729.8c0,379.4-307.57,687-687,687S30,1109.2,30,729.8c0-191.7,78.52-365.06,205.15-489.67" style="fill:none;stroke-linecap:round;stroke-linejoin:round;stroke-width:60px;stroke:url(#linear-gradient-3)"/><line x1="716.97" y1="30" x2="716.97" y2="629.15" style="fill:none;stroke-linecap:round;stroke-linejoin:round;stroke-width:60px;stroke:url(#linear-gradient-4)"/></g></g></g></g></svg>