<svg xmlns="http://www.w3.org/2000/svg" xmlns:xlink="http://www.w3.org/1999/xlink" viewBox="0 0 1461.51 1481.63"><defs><linearGradient id="linear-gradient" y1="1010.13" x2="1189.3" y2="1010.13" gradientUnits="userSpaceOnUse"><stop offset="0" stop-color="#f10049"/><stop offset="1" stop-color="#f47081"/></linearGradient><linearGradient id="linear-gradient-2" x1="1038.28" y1="1281.49" x2="1398.04" y2="1281.49" xlink:href="#linear-gradient"/><linearGradient id="linear-gradient-3" x1="272.21" y1="501.7" x2="1461.51" y2="501.7" xlink:href="#linear-gradient"/><linearGradient id="linear-gradient-4" x1="63.47" y1="230.34" x2="423.23" y2="230.34" xlink:href="#linear-gradient"/><linearGradient id="linear-gradient-5" y1="979.93" x2="1189.3" y2="979.93" xlink:href="#linear-gradient"/><linearGradient id="linear-gradient-6" x1="1038.28" y1="1251.29" x2="1398.04" y2="1251.29" xlink:href="#linear-gradient"/><linearGradient id="linear-gradient-7" x1="272.21" y1="471.5" x2="1461.51" y2="471.5" xlink:href="#linear-gradient"/><linearGradient id="linear-gradient-8" x1="63.47" y1="200.14" x2="423.23" y2="200.14" xlink:href="#linear-gradient"/></defs><g id="Layer_2" data-name="Layer 2"><g id="Layer_1-2" data-name="Layer 1"><g id="reload"><g id="reload-2" data-name="reload" style="opacity:0.35000000000000003"><path d="M1159.3,1308.8c-260.61,191.82-613.94,189.32-859.71-.8C80.08,1138.19-17.79,846.46,52.46,568.63" style="fill:none;stroke-linecap:round;stroke-linejoin:round;stroke-width:60px;stroke:url(#linear-gradient)"/><path d="M1319.62,1405.57,1367,1197.16a41.24,41.24,0,0,0-36.15-50.18l-217.18-21.47c-35.56-3.51-58.45,36.79-37.22,65.53l169.8,229.88C1267.21,1449.3,1311.8,1440,1319.62,1405.57Z" style="fill:none;stroke-linecap:round;stroke-linejoin:round;stroke-width:60px;stroke:url(#linear-gradient-2)"/><path d="M302.21,203c260.61-191.82,613.94-189.32,859.71.8,219.52,169.81,317.38,461.54,247.14,739.37" style="fill:none;stroke-linecap:round;stroke-linejoin:round;stroke-width:60px;stroke:url(#linear-gradient-3)"/><path d="M141.89,106.26,94.51,314.67a41.24,41.24,0,0,0,36.15,50.18l217.18,21.47c35.56,3.51,58.45-36.79,37.22-65.53L215.26,90.91C194.31,62.53,149.71,71.87,141.89,106.26Z" style="fill:none;stroke-linecap:round;stroke-linejoin:round;stroke-width:60px;stroke:url(#linear-gradient-4)"/></g><g id="reload-3" data-name="reload"><path d="M1159.3,1278.59c-260.61,191.83-613.94,189.32-859.71-.8C80.08,1108-17.79,816.26,52.46,538.43" style="fill:none;stroke-linecap:round;stroke-linejoin:round;stroke-width:60px;stroke:url(#linear-gradient-5)"/><path d="M1319.62,1375.37,1367,1167a41.23,41.23,0,0,0-36.15-50.17l-217.18-21.47c-35.56-3.51-58.45,36.79-37.22,65.53l169.8,229.88C1267.21,1419.09,1311.8,1409.76,1319.62,1375.37Z" style="fill:none;stroke-linecap:round;stroke-linejoin:round;stroke-width:60px;stroke:url(#linear-gradient-6)"/><path d="M302.21,172.83c260.61-191.82,613.94-189.32,859.71.8C1381.44,343.44,1479.3,635.17,1409.06,913" style="fill:none;stroke-linecap:round;stroke-linejoin:round;stroke-width:60px;stroke:url(#linear-gradient-7)"/><path d="M141.89,76.06,94.51,284.47a41.23,41.23,0,0,0,36.15,50.17l217.18,21.47c35.56,3.52,58.45-36.78,37.22-65.52L215.26,60.7C194.31,32.33,149.71,41.67,141.89,76.06Z" style="fill:none;stroke-linecap:round;stroke-linejoin:round;stroke-width:60px;stroke:url(#linear-gradient-8)"/></g></g></g></g></svg>