<svg xmlns="http://www.w3.org/2000/svg" xmlns:xlink="http://www.w3.org/1999/xlink" viewBox="0 0 1466.71 1445.37"><defs><linearGradient id="linear-gradient" x1="220.62" y1="345.97" x2="1246.19" y2="1371.54" gradientUnits="userSpaceOnUse"><stop offset="0" stop-color="#f10049"/><stop offset="1" stop-color="#f47081"/></linearGradient><linearGradient id="linear-gradient-2" x1="220.58" y1="302.38" x2="1246.14" y2="1327.94" xlink:href="#linear-gradient"/></defs><g id="Layer_2" data-name="Layer 2"><g id="Layer_1-2" data-name="Layer 1"><g id="star"><path id="star-2" data-name="star" d="M769.53,95.17,955.92,472.85a40.34,40.34,0,0,0,30.37,22.07l416.8,60.56c33.08,4.81,46.29,45.46,22.35,68.8l-301.59,294a40.31,40.31,0,0,0-11.6,35.7l71.19,415.12c5.65,33-28.93,58.07-58.52,42.52l-372.79-196c-11.75-6.18-25.79-6.18-37.54-2.5l-372.8,196c-29.59,18.05-64.17-7.07-58.52-40L354.47,954a40.34,40.34,0,0,0-11.6-35.7l-301.6-294c-23.94-23.34-10.73-64,22.35-68.8l416.8-60.56a40.32,40.32,0,0,0,30.37-22.07L697.19,95.17C712,65.19,754.73,65.19,769.53,95.17Z" style="fill:none;stroke-linejoin:round;stroke-width:58.0939744406053px;opacity:0.35000000000000003;stroke:url(#linear-gradient)"/><path id="star-3" data-name="star" d="M769.53,51.53,955.92,429.21a40.34,40.34,0,0,0,30.37,22.07l416.8,60.56c33.08,4.81,46.29,45.46,22.35,68.8l-301.59,294a40.31,40.31,0,0,0-11.6,35.7l71.19,415.12c5.65,33-28.93,58.07-58.52,42.52L752.13,1172a40.32,40.32,0,0,0-37.54,0l-372.8,196c-29.59,15.55-64.17-9.57-58.52-42.52l71.2-415.12a40.34,40.34,0,0,0-11.6-35.7l-301.6-294c-23.94-23.34-10.73-64,22.35-68.8l416.8-60.56a40.32,40.32,0,0,0,30.37-22.07L697.19,51.53C712,21.55,754.73,21.55,769.53,51.53Z" style="fill:none;stroke-linejoin:round;stroke-width:58.0939744406053px;stroke:url(#linear-gradient-2)"/></g></g></g></svg>