<svg xmlns="http://www.w3.org/2000/svg" xmlns:xlink="http://www.w3.org/1999/xlink" viewBox="0 0 1297.56 1455.27"><defs><linearGradient id="linear-gradient" x1="156.73" y1="437.69" x2="1140.83" y2="1421.79" gradientUnits="userSpaceOnUse"><stop offset="0" stop-color="#f10049"/><stop offset="1" stop-color="#f47081"/></linearGradient><linearGradient id="linear-gradient-2" x1="551.31" y1="45.66" x2="746.25" y2="240.6" xlink:href="#linear-gradient"/><linearGradient id="linear-gradient-3" x1="265.97" y1="-26.11" x2="1031.59" y2="739.5" xlink:href="#linear-gradient"/><linearGradient id="linear-gradient-4" x1="218.96" y1="1143.41" x2="559.13" y2="803.23" xlink:href="#linear-gradient"/><linearGradient id="linear-gradient-5" x1="478.69" y1="1143.41" x2="818.87" y2="803.23" xlink:href="#linear-gradient"/><linearGradient id="linear-gradient-6" x1="738.43" y1="1143.41" x2="1078.61" y2="803.23" xlink:href="#linear-gradient"/><linearGradient id="linear-gradient-7" x1="156.73" y1="404.8" x2="1140.83" y2="1388.9" xlink:href="#linear-gradient"/><linearGradient id="linear-gradient-8" x1="551.31" y1="12.77" x2="746.25" y2="207.71" xlink:href="#linear-gradient"/><linearGradient id="linear-gradient-9" x1="265.97" y1="-59" x2="1031.59" y2="706.62" xlink:href="#linear-gradient"/><linearGradient id="linear-gradient-10" x1="218.96" y1="1110.52" x2="559.13" y2="770.35" xlink:href="#linear-gradient"/><linearGradient id="linear-gradient-11" x1="478.69" y1="1110.52" x2="818.87" y2="770.35" xlink:href="#linear-gradient"/><linearGradient id="linear-gradient-12" x1="738.43" y1="1110.52" x2="1078.61" y2="770.35" xlink:href="#linear-gradient"/></defs><g id="Layer_2" data-name="Layer 2"><g id="Layer_1-2" data-name="Layer 1"><g id="trash"><g id="trash-2" data-name="trash" style="opacity:0.35000000000000003"><path d="M150.71,482.87v857.7a87,87,0,0,0,87,87h822.11a87,87,0,0,0,87-87V482.87" style="fill:none;stroke-linecap:round;stroke-linejoin:round;stroke-width:55.3861665358984px;stroke:url(#linear-gradient)"/><path d="M554,201.22V100.87a38.22,38.22,0,0,1,38.22-38.22H705.32a38.22,38.22,0,0,1,38.22,38.22V201.22" style="fill:none;stroke-linecap:round;stroke-linejoin:round;stroke-width:59.5302629470825px;stroke:url(#linear-gradient-2)"/><path d="M1267.8,461.2v-173a87,87,0,0,0-87-87h-1064a87,87,0,0,0-87,87v173Z" style="fill:none;stroke-linecap:round;stroke-linejoin:round;stroke-width:59.5302629470825px;stroke:url(#linear-gradient-3)"/><line x1="389.04" y1="675.24" x2="389.04" y2="1271.4" style="fill:none;stroke-linecap:round;stroke-linejoin:round;stroke-width:59.5302629470825px;stroke:url(#linear-gradient-4)"/><line x1="648.78" y1="675.24" x2="648.78" y2="1271.4" style="fill:none;stroke-linecap:round;stroke-linejoin:round;stroke-width:59.5302629470825px;stroke:url(#linear-gradient-5)"/><line x1="908.52" y1="675.24" x2="908.52" y2="1271.4" style="fill:none;stroke-linecap:round;stroke-linejoin:round;stroke-width:59.5302629470825px;stroke:url(#linear-gradient-6)"/></g><g id="trash-3" data-name="trash"><path d="M150.71,450v857.7a87,87,0,0,0,87,87h822.11a87,87,0,0,0,87-87V450" style="fill:none;stroke-linecap:round;stroke-linejoin:round;stroke-width:55.3861665358984px;stroke:url(#linear-gradient-7)"/><path d="M554,168.33V68a38.22,38.22,0,0,1,38.22-38.21H705.32A38.22,38.22,0,0,1,743.54,68V168.33" style="fill:none;stroke-linecap:round;stroke-linejoin:round;stroke-width:59.5302629470825px;stroke:url(#linear-gradient-8)"/><path d="M1267.8,428.32v-173a87,87,0,0,0-87-87h-1064a87,87,0,0,0-87,87v173Z" style="fill:none;stroke-linecap:round;stroke-linejoin:round;stroke-width:59.5302629470825px;stroke:url(#linear-gradient-9)"/><line x1="389.04" y1="642.35" x2="389.04" y2="1238.51" style="fill:none;stroke-linecap:round;stroke-linejoin:round;stroke-width:59.5302629470825px;stroke:url(#linear-gradient-10)"/><line x1="648.78" y1="642.35" x2="648.78" y2="1238.51" style="fill:none;stroke-linecap:round;stroke-linejoin:round;stroke-width:59.5302629470825px;stroke:url(#linear-gradient-11)"/><line x1="908.52" y1="642.35" x2="908.52" y2="1238.51" style="fill:none;stroke-linecap:round;stroke-linejoin:round;stroke-width:59.5302629470825px;stroke:url(#linear-gradient-12)"/></g></g></g></g></svg>