<svg xmlns="http://www.w3.org/2000/svg" xmlns:xlink="http://www.w3.org/1999/xlink" viewBox="0 0 1463.85 1375.02"><defs><linearGradient id="linear-gradient" y1="1122.37" x2="1463.85" y2="1122.37" gradientUnits="userSpaceOnUse"><stop offset="0" stop-color="#f10049"/><stop offset="1" stop-color="#f47081"/></linearGradient><linearGradient id="linear-gradient-2" x1="492.3" y1="735.63" x2="971.55" y2="256.39" xlink:href="#linear-gradient"/><linearGradient id="linear-gradient-3" x1="561.6" y1="162.15" x2="902.25" y2="502.8" xlink:href="#linear-gradient"/><linearGradient id="linear-gradient-4" y1="1089.04" x2="1463.85" y2="1089.04" xlink:href="#linear-gradient"/><linearGradient id="linear-gradient-5" x1="497.49" y1="707.48" x2="966.36" y2="238.62" xlink:href="#linear-gradient"/><linearGradient id="linear-gradient-6" x1="561.6" y1="128.82" x2="902.25" y2="469.47" xlink:href="#linear-gradient"/></defs><g id="Layer_2" data-name="Layer 2"><g id="Layer_1-2" data-name="Layer 1"><g id="upload"><g id="upload-2" data-name="upload" style="opacity:0.35000000000000003"><path d="M30,899.72v350.75A94.55,94.55,0,0,0,124.55,1345H1339.3a94.55,94.55,0,0,0,94.55-94.55V899.72" style="fill:none;stroke-linecap:round;stroke-linejoin:round;stroke-width:60px;stroke:url(#linear-gradient)"/><line x1="731.92" y1="932.82" x2="731.92" y2="59.19" style="fill:none;stroke-linecap:round;stroke-linejoin:round;stroke-width:60px;stroke:url(#linear-gradient-2)"/><path d="M432.53,333.65,692.91,73.27a56.82,56.82,0,0,1,80.37,0l258,258" style="fill:none;stroke-linecap:round;stroke-linejoin:round;stroke-width:60px;stroke:url(#linear-gradient-3)"/></g><g id="upload-3" data-name="upload"><path d="M30,866.39v350.75a94.55,94.55,0,0,0,94.55,94.55H1339.3a94.55,94.55,0,0,0,94.55-94.55V866.39" style="fill:none;stroke-linecap:round;stroke-linejoin:round;stroke-width:60px;stroke:url(#linear-gradient-4)"/><line x1="731.92" y1="899.49" x2="731.92" y2="46.61" style="fill:none;stroke-linecap:round;stroke-linejoin:round;stroke-width:60px;stroke:url(#linear-gradient-5)"/><path d="M432.53,300.32,681.45,51.39a73,73,0,0,1,103.29,0L1031.32,298" style="fill:none;stroke-linecap:round;stroke-linejoin:round;stroke-width:60px;stroke:url(#linear-gradient-6)"/></g></g></g></g></svg>