<svg xmlns="http://www.w3.org/2000/svg" viewBox="0 0 68 48.34"><defs><style>.cls-1{fill:#ededed;}</style></defs><g id="Layer_2" data-name="Layer 2"><g id="Layer_1-2" data-name="Layer 1"><path class="cls-1" d="M67.87,24l-3.32-3.93a.53.53,0,0,0-.73-.08l-4.31,3.23a.54.54,0,0,0-.11.74l2.87,4a.54.54,0,0,0,.74.12l4.76-3.3A.52.52,0,0,0,67.87,24Z"/><path class="cls-1" d="M52.41,25.13a17.07,17.07,0,0,0-6.14,5.13c-.62.89-.87,1.47-2.2,3.39-.49.69-.87,1.21-1.74,2.38-2.22,3-3.32,4.43-3.58,4.67a8.69,8.69,0,0,1-5.49,2.84,8.6,8.6,0,0,1-5.59-2.1,8.9,8.9,0,0,1-3.85-5.23,7.09,7.09,0,0,1-.09-2.47,72.06,72.06,0,0,0,7.42-3.85c3.49-2.07,6-3.56,8.61-6.23a19.93,19.93,0,0,0,5.13-7.24A14.35,14.35,0,0,0,45.62,7C45.28,5.82,44.21,2.19,41,.67A7.35,7.35,0,0,0,38.48,0c-6.37-.53-13,7.72-13.38,8.25-4.51,5.78-5.6,11.93-6.23,15.48a42.05,42.05,0,0,0-.64,7.52c-2.76,1.24-5,2.4-6.69,3.29A62,62,0,0,0,5.13,38.5C2.62,40.28,1.48,41.38.73,43A8.52,8.52,0,0,0,0,45.65C2.48,44,5.26,42.34,8.34,40.7a102.42,102.42,0,0,1,9.89-4.58,20.73,20.73,0,0,0,1.83,4.49,15.24,15.24,0,0,0,3.67,4.77,13.26,13.26,0,0,0,6.5,2.84A12.22,12.22,0,0,0,38,46.75a13.6,13.6,0,0,0,3.85-3.66c1.19-1.67,1-2.25,2.2-3.39s1.59-.83,3.94-2.48a15,15,0,0,0,3-2.75c1.19-1.45,1.31-2.22,1.28-2.75,0-.07-.08-1.32-.82-1.64a2,2,0,0,0-1.1,0c-.89.12-1.18.35-1.38.18s-.14-.73.1-1.1a2,2,0,0,1,1.28-.73,13.88,13.88,0,0,0,2.84-1.29,8.69,8.69,0,0,0,2.29-2,9.19,9.19,0,0,0,1.1-1.74A20.28,20.28,0,0,0,52.41,25.13ZM25.1,15.6c2.38-6.1,5.49-8.71,6.42-9.44C32.94,5,35.17,3.33,37.84,3.78a5.47,5.47,0,0,1,3,1.56c2.61,2.85.87,8.9-1.37,12.55s-5.35,5.52-9.07,7.79a44.07,44.07,0,0,1-7.61,3.66A34.66,34.66,0,0,1,25.1,15.6Z"/></g></g></svg>