<svg xmlns="http://www.w3.org/2000/svg" xmlns:xlink="http://www.w3.org/1999/xlink" viewBox="0 0 279.81 57.71"><defs><linearGradient id="linear-gradient" x1="13.06" y1="3.88" x2="44.26" y2="53.21" gradientUnits="userSpaceOnUse"><stop offset="0" stop-color="#ff7584"/><stop offset="1" stop-color="#ff0048"/></linearGradient></defs><g id="Layer_2" data-name="Layer 2"><g id="Layer_1-2" data-name="Layer 1"><path d="M57.71,28.85a28.73,28.73,0,0,1-5.52,17v0c-.3.4-.6.8-.92,1.19A29.28,29.28,0,0,1,47,51.31c-.43.35-.87.68-1.32,1s-.95.66-1.45,1a28.7,28.7,0,0,1-15.36,4.42c-.55,0-1.1,0-1.65-.05s-1.05-.07-1.57-.13a28.66,28.66,0,0,1-12.14-4.24l-.12-.08c-.76-.49-1.5-1-2.21-1.56a29.35,29.35,0,0,1-5.64-5.82c-.26-.35-.5-.71-.74-1.07C4.4,44.19,4,43.6,3.7,43a28.89,28.89,0,0,1,0-28.29c.34-.6.7-1.19,1.08-1.76.26-.39.52-.78.8-1.15a28.9,28.9,0,0,1,5.58-5.74c.79-.61,1.61-1.19,2.46-1.72l.09,0A28.88,28.88,0,0,1,44,4.29l.08,0a27.89,27.89,0,0,1,3.18,2.29,28.74,28.74,0,0,1,4.87,5.17l.27.37.32.46A28.71,28.71,0,0,1,57.71,28.85Z" style="fill:url(#linear-gradient)"/><path d="M35.74,40.25a8.84,8.84,0,0,1-.69,3,10.16,10.16,0,0,1-2.18,3c-1,1-1.25,1-2.25,2.11a9.35,9.35,0,0,0-1.48,2.1A8.35,8.35,0,0,0,28.59,52c-.53,2.06-.91,3.78-1,4.26s-.21.85-.37,1.36c-.52,0-1.05-.07-1.57-.13.35-.93.58-1.74.92-3A7.35,7.35,0,0,0,27,51.84a6.9,6.9,0,0,0-.27-1.29,7.53,7.53,0,0,0-.84-1.73,18.07,18.07,0,0,0-1.71-2.2,10.42,10.42,0,0,1-1.37-1.71,5.94,5.94,0,0,1-.61-1.67,41,41,0,0,1-.48-7.12c2.16,2.2,3.75,3.76,4.73,4.61A5.13,5.13,0,0,1,27.57,42a4.41,4.41,0,0,1,.52,1.74A14.82,14.82,0,0,1,28,47.61a.29.29,0,0,0,.25.33h0a.28.28,0,0,0,.33-.26c.05-.74.13-1.35.2-1.81a8.85,8.85,0,0,1,.56-2.27,7.41,7.41,0,0,1,1-1.68,19.82,19.82,0,0,1,2.77-2.71c.59-.55,1.45-1.36,2.47-2.4A13.2,13.2,0,0,1,35.74,40.25Z" style="fill:#ededed"/><path d="M28,40a15.43,15.43,0,0,1-1.37-1.29,25.44,25.44,0,0,1-2.16-2.63,17.44,17.44,0,0,1-1.14-1.6,9.29,9.29,0,0,1-.84-2.78,23.2,23.2,0,0,1-.44-3.4c0-.69,0-1.27,0-1.7,1.15,1.06,2.11,2,2.84,2.71A19.16,19.16,0,0,1,27,31.62a7,7,0,0,1,1.31,2.24c.17.54.21,1,0,3.13C28.24,37.77,28.15,38.81,28,40Z" style="fill:#ededed"/><path d="M28.18,30.16c-.95-1-1.74-1.82-2.29-2.36A18.91,18.91,0,0,1,24.14,26,8.55,8.55,0,0,1,23,24c0-.06-.09-.24-.16-.5a12.42,12.42,0,0,1-.22-4.38c0-.47.07-1.1.13-1.86.16.24.39.58.69,1s.65.78,1,1.19c1.12,1.2,1.25,1.21,2,2.05A8.53,8.53,0,0,1,27.55,23a7.75,7.75,0,0,1,.57,1.35,10.16,10.16,0,0,1,.32,4A17.77,17.77,0,0,1,28.18,30.16Z" style="fill:#ededed"/><path d="M28.39,20.39l-1.33-1.23a17.66,17.66,0,0,1-2-2,6.09,6.09,0,0,1-1.08-2,6.43,6.43,0,0,1-.18-2.26,11.54,11.54,0,0,1,.32-2.47c.1-.41.2-.75.28-1,.84,1.1,1.55,1.95,2,2.51a6.92,6.92,0,0,1,1.77,2.69,7.13,7.13,0,0,1,.18,1.08,17.6,17.6,0,0,1,.12,2.64C28.47,18.87,28.45,19.57,28.39,20.39Z" style="fill:#ededed"/><path d="M28.85,12.89A11.45,11.45,0,0,1,27,10.41a4.79,4.79,0,0,1-.92-3,6.61,6.61,0,0,1,.66-1.9c.22-.45.39-.73.77-1.51.21-.44.37-.81.48-1.06a8.3,8.3,0,0,1,2.36,2.62A4.84,4.84,0,0,1,31.14,8a5.08,5.08,0,0,1-.6,2.25A10.53,10.53,0,0,1,28.85,12.89Z" style="fill:#ededed"/><path d="M29.75,20.35c-.05-1-.08-1.86-.09-2.52a10.51,10.51,0,0,1,.18-3.18,7.66,7.66,0,0,1,.38-1.1,4.59,4.59,0,0,1,.26-.48,21.71,21.71,0,0,1,1.19-1.87,20.37,20.37,0,0,0,1.14-1.89,6.36,6.36,0,0,1,1.08,2.15,6.54,6.54,0,0,1,0,3.27,7.85,7.85,0,0,1-1.23,2.58,12.66,12.66,0,0,1-2,2.25C30.31,19.9,30,20.17,29.75,20.35Z" style="fill:#ededed"/><path d="M29.88,30.14a17.34,17.34,0,0,1-.15-2.63,12.62,12.62,0,0,1,.32-2.89,8.85,8.85,0,0,1,.72-2.07,19.85,19.85,0,0,1,2-2.68,18.49,18.49,0,0,0,1.35-1.82,12,12,0,0,0,.79-1.57,19.27,19.27,0,0,1,.54,2.39,9.65,9.65,0,0,1,.19,3.43,7.49,7.49,0,0,1-1.25,2.88,20.53,20.53,0,0,1-2.58,2.9C31,29,30.31,29.67,29.88,30.14Z" style="fill:#ededed"/><path d="M29.65,39.83c0-1.53.07-2.64.08-3.36a12.74,12.74,0,0,1,.21-2.31,5.92,5.92,0,0,1,.44-1.55,8,8,0,0,1,1.64-2c1.33-1.39,1.37-1.29,2.07-2.09a16.5,16.5,0,0,1,1.23-1.27l.5-.45A26.64,26.64,0,0,1,36,30.24a9.24,9.24,0,0,1-.28,2.69A8.42,8.42,0,0,1,34,35.78a20.65,20.65,0,0,1-3.06,3C30.42,39.22,30,39.58,29.65,39.83Z" style="fill:#ededed"/><path d="M80.67,21.16a5.6,5.6,0,0,1,2.16,2V20.65H88.2V38.17a9.84,9.84,0,0,1-1,4.38,7.28,7.28,0,0,1-2.92,3.13,9.42,9.42,0,0,1-4.89,1.17A10.2,10.2,0,0,1,73.11,45a7,7,0,0,1-2.77-5h5.32a2.52,2.52,0,0,0,1.19,1.59,4.35,4.35,0,0,0,2.33.58,3.66,3.66,0,0,0,2.66-1,4.11,4.11,0,0,0,1-3.06V35.68a6,6,0,0,1-2.17,2,6.63,6.63,0,0,1-3.24.77,7.12,7.12,0,0,1-3.93-1.12,7.72,7.72,0,0,1-2.79-3.17,10.6,10.6,0,0,1-1-4.77,10.47,10.47,0,0,1,1-4.74,7.67,7.67,0,0,1,2.79-3.15,7.28,7.28,0,0,1,3.93-1.1A6.67,6.67,0,0,1,80.67,21.16Zm1,5.09a3.79,3.79,0,0,0-5.44,0,4.37,4.37,0,0,0-1.12,3.16,4.49,4.49,0,0,0,1.12,3.2,3.74,3.74,0,0,0,5.44,0,4.39,4.39,0,0,0,1.12-3.17A4.44,4.44,0,0,0,81.71,26.25Z" style="fill:#ededed"/><path d="M92.05,24.65a7.67,7.67,0,0,1,2.79-3.15,7.28,7.28,0,0,1,3.93-1.1,6.67,6.67,0,0,1,3.25.76,5.6,5.6,0,0,1,2.16,2V20.65h5.37V38.2h-5.37V35.72a6,6,0,0,1-2.19,2,6.78,6.78,0,0,1-3.25.75,7.07,7.07,0,0,1-3.9-1.12,7.72,7.72,0,0,1-2.79-3.17,10.6,10.6,0,0,1-1-4.77A10.47,10.47,0,0,1,92.05,24.65Zm11,1.6a3.79,3.79,0,0,0-5.44,0,4.37,4.37,0,0,0-1.12,3.16,4.49,4.49,0,0,0,1.12,3.2,3.74,3.74,0,0,0,5.44,0,4.39,4.39,0,0,0,1.12-3.17A4.44,4.44,0,0,0,103.06,26.25Z" style="fill:#ededed"/><path d="M129.06,22.46A7.77,7.77,0,0,1,130.9,28V38.2h-5.34V28.67a3.88,3.88,0,0,0-.91-2.73,3.57,3.57,0,0,0-4.91,0,3.83,3.83,0,0,0-.91,2.73V38.2h-5.38V20.65h5.38V23a5.69,5.69,0,0,1,2.2-1.84,7,7,0,0,1,3.11-.67A6.35,6.35,0,0,1,129.06,22.46Z" style="fill:#ededed"/><path d="M134.6,24.65a7.58,7.58,0,0,1,2.78-3.15,7.28,7.28,0,0,1,3.93-1.1,6.81,6.81,0,0,1,3.16.73,5.79,5.79,0,0,1,2.25,1.95V14.93h5.37V38.2h-5.37V35.68a5.55,5.55,0,0,1-2.16,2,6.75,6.75,0,0,1-3.25.75,7.12,7.12,0,0,1-3.93-1.12,7.63,7.63,0,0,1-2.78-3.17,10.47,10.47,0,0,1-1-4.77A10.34,10.34,0,0,1,134.6,24.65Zm11,1.6a3.79,3.79,0,0,0-5.44,0,4.36,4.36,0,0,0-1.11,3.16,4.48,4.48,0,0,0,1.11,3.2,3.74,3.74,0,0,0,5.44,0,4.35,4.35,0,0,0,1.12-3.17A4.39,4.39,0,0,0,145.6,26.25Z" style="fill:#ededed"/><path d="M159.34,37.35a8.09,8.09,0,0,1-3.24-3.14,9.49,9.49,0,0,1-1.18-4.78,9.31,9.31,0,0,1,1.2-4.77,8.21,8.21,0,0,1,3.27-3.16,10.4,10.4,0,0,1,9.31,0A8.21,8.21,0,0,1,172,24.66a9.41,9.41,0,0,1,1.19,4.77A9.18,9.18,0,0,1,172,34.19a8.22,8.22,0,0,1-3.3,3.16,9.93,9.93,0,0,1-4.67,1.1A9.72,9.72,0,0,1,159.34,37.35Zm7.26-4.68a4.49,4.49,0,0,0,1.09-3.24,4.58,4.58,0,0,0-1.05-3.24,3.59,3.59,0,0,0-5.21,0,4.64,4.64,0,0,0-1,3.26,4.7,4.7,0,0,0,1,3.24A3.31,3.31,0,0,0,164,33.8,3.5,3.5,0,0,0,166.6,32.67Z" style="fill:#ededed"/><path d="M203.61,22.45a7.53,7.53,0,0,1,1.94,5.5V38.2H200.2V28.67a3.65,3.65,0,0,0-.89-2.62,3.75,3.75,0,0,0-4.94,0,3.61,3.61,0,0,0-.9,2.62V38.2h-5.34V28.67a3.61,3.61,0,0,0-.9-2.62,3.73,3.73,0,0,0-4.93,0,3.61,3.61,0,0,0-.9,2.62V38.2H176V20.65h5.38v2.2a5.75,5.75,0,0,1,2.14-1.74,6.69,6.69,0,0,1,3-.64,7.32,7.32,0,0,1,3.54.84,6.13,6.13,0,0,1,2.44,2.43A7,7,0,0,1,195,21.38a6.7,6.7,0,0,1,3.43-.91A6.93,6.93,0,0,1,203.61,22.45Z" style="fill:#ededed"/><path d="M220,38.2l-5.34-7.36V38.2h-5.38V14.93h5.38V27.79L220,20.65h6.64l-7.3,8.81,7.36,8.74Z" style="fill:#ededed"/><path d="M229.15,18a2.84,2.84,0,0,1,0-4.15,3.56,3.56,0,0,1,4.59,0,2.86,2.86,0,0,1,0,4.15,3.59,3.59,0,0,1-4.59,0Zm5,2.65V38.2h-5.38V20.65Z" style="fill:#ededed"/><path d="M247.81,33.64V38.2h-2.74a6.72,6.72,0,0,1-4.56-1.43c-1.09-1-1.63-2.51-1.63-4.67v-7h-2.14V20.65h2.14V16.38h5.37v4.27h3.52v4.47h-3.52v7a1.47,1.47,0,0,0,.38,1.13,1.84,1.84,0,0,0,1.26.35Z" style="fill:#ededed"/><path d="M251,37.62a2.7,2.7,0,0,1-.9-2.06,2.79,2.79,0,0,1,.9-2.11,3.52,3.52,0,0,1,4.59,0,2.78,2.78,0,0,1,.89,2.11,2.69,2.69,0,0,1-.89,2.06,3.59,3.59,0,0,1-4.59,0Z" style="fill:#ededed"/><path d="M260.05,18a2.86,2.86,0,0,1,0-4.15,3.25,3.25,0,0,1,2.31-.84,3.18,3.18,0,0,1,2.28.84,2.84,2.84,0,0,1,0,4.15,3.21,3.21,0,0,1-2.28.83A3.29,3.29,0,0,1,260.05,18Zm5,2.65V38.2h-5.38V20.65Z" style="fill:#ededed"/><path d="M276.67,21.3a6,6,0,0,1,3.14-.83v5.69h-1.47a4.5,4.5,0,0,0-3,.86,3.86,3.86,0,0,0-1,3V38.2h-5.37V20.65h5.37v2.93A7,7,0,0,1,276.67,21.3Z" style="fill:#ededed"/></g></g></svg>