<svg xmlns="http://www.w3.org/2000/svg" viewBox="0 0 35.83 34.5"><g id="Layer_2" data-name="Layer 2"><g id="Layer_1-2" data-name="Layer 1"><rect x="0.5" y="0.5" width="34.83" height="33.5" rx="5.06" style="fill:none;stroke:#ededed;stroke-miterlimit:10"/><path d="M28.07,17.66A10.13,10.13,0,0,1,25,25.29a9.88,9.88,0,0,1-6.85,2.52,10.38,10.38,0,0,1-9.27-5.73,10.29,10.29,0,0,1,0-9.3,10.38,10.38,0,0,1,9.27-5.73A9.92,9.92,0,0,1,24,8.91a1.16,1.16,0,0,1,.12,1.76L22.84,12a1.16,1.16,0,0,1-1.47.13,5.66,5.66,0,0,0-3.23-1,6.27,6.27,0,0,0,0,12.54,6.3,6.3,0,0,0,3.52-1,4.92,4.92,0,0,0,2-2.64.37.37,0,0,0-.36-.46h-4a1.16,1.16,0,0,1-1.16-1.16V16.86A1.16,1.16,0,0,1,19.3,15.7h6.77a2,2,0,0,1,2,1.94Z" style="fill:none;stroke:#ededed;stroke-linecap:round;stroke-linejoin:round"/></g></g></svg>