<?xml version="1.0" encoding="UTF-8"?>
<svg id="Layer_2" data-name="Layer 2" xmlns="http://www.w3.org/2000/svg" viewBox="0 0 18.62 17.75">
  <defs>
    <style>
      .cls-1 {
        fill: #ff678f;
      }
    </style>
  </defs>
  <g id="Layer_1-2" data-name="Layer 1">
    <path class="cls-1" d="m9.73.26l2.51,5.09c.07.14.2.23.35.26l5.62.82c.38.06.54.53.26.8l-4.07,3.97c-.11.11-.16.26-.13.41l.96,5.6c.07.38-.34.67-.68.49l-5.03-2.64c-.14-.07-.3-.07-.44,0l-5.03,2.64c-.34.18-.74-.11-.68-.49l.96-5.6c.03-.15-.02-.31-.13-.41L.14,7.23c-.28-.27-.12-.74.26-.8l5.62-.82c.15-.02.28-.12.35-.26L8.89.26c.17-.35.67-.35.84,0Z"/>
  </g>
</svg>