<svg xmlns="http://www.w3.org/2000/svg" viewBox="0 0 32.9 32.9"><defs><style>.cls-1{fill:none;stroke:#ededed;stroke-miterlimit:10;stroke-width:1.5px;}</style></defs><g id="Layer_2" data-name="Layer 2"><g id="Layer_1-2" data-name="Layer 1"><rect class="cls-1" x="0.75" y="0.75" width="31.4" height="31.4" rx="10.13"/><path class="cls-1" d="M16.08,12.9A5.44,5.44,0,0,1,17.77,9a5.48,5.48,0,0,1,4.38-1.3,5.35,5.35,0,0,1,2.39,1,4.81,4.81,0,0,1,2.68-1.23,4.12,4.12,0,0,1,.93,0L27,9.45l1.39.15a3.18,3.18,0,0,1-.85,1.77,3.21,3.21,0,0,1-1.23.77,13.9,13.9,0,0,1-9.6,13.67A14.46,14.46,0,0,1,5.17,24.35c1-.3,1.92-.63,2.92-1,.83-.3,1.62-.61,2.38-.92a4.85,4.85,0,0,1-4-3.84A3.43,3.43,0,0,0,7.79,19a3.24,3.24,0,0,0,1.3-.15,5.1,5.1,0,0,1-2.38-1.69,5.22,5.22,0,0,1-1.08-3.07,2.81,2.81,0,0,0,1.08.69,3,3,0,0,0,1.08.15,7.57,7.57,0,0,1-1.31-3.53,7.68,7.68,0,0,1,.61-3.85,12.32,12.32,0,0,0,3.77,3.62A12.44,12.44,0,0,0,16.08,12.9Z"/></g></g></svg>