<?xml version="1.0" encoding="UTF-8"?>
<svg id="Layer_2" data-name="Layer 2" xmlns="http://www.w3.org/2000/svg" viewBox="0 0 253.72 253.72">
  <defs>
    <style>
      .cls-1 {
        fill: #ededed;
      }
    </style>
  </defs>
  <g id="Layer_2-2" data-name="Layer 2">
    <g>
      <path class="cls-1" d="m126.86,0C56.91,0,0,56.91,0,126.86s56.91,126.86,126.86,126.86,126.86-56.91,126.86-126.86S196.81,0,126.86,0Zm0,250.72C58.56,250.72,3,195.16,3,126.86S58.56,3,126.86,3s123.86,55.56,123.86,123.86-55.56,123.86-123.86,123.86Z"/>
      <path class="cls-1" d="m183.82,69.9c-.59-.59-1.54-.59-2.12,0l-54.84,54.84-54.84-54.84c-.59-.59-1.54-.59-2.12,0s-.59,1.54,0,2.12l54.84,54.84-54.84,54.84c-.59.59-.59,1.54,0,2.12.29.29.68.44,1.06.44s.77-.15,1.06-.44l54.84-54.84,54.84,54.84c.29.29.68.44,1.06.44s.77-.15,1.06-.44c.59-.59.59-1.54,0-2.12l-54.84-54.84,54.84-54.84c.59-.59.59-1.54,0-2.12Z"/>
    </g>
  </g>
</svg>