<?xml version="1.0" encoding="UTF-8"?>
<svg id="Layer_2" data-name="Layer 2" xmlns="http://www.w3.org/2000/svg" viewBox="0 0 253.72 253.72">
  <defs>
    <style>
      .cls-1 {
        fill: #ededed;
      }
    </style>
  </defs>
  <g id="Layer_1-2" data-name="Layer 1">
    <g>
      <path class="cls-1" d="m126.86,0C56.91,0,0,56.91,0,126.86s56.91,126.86,126.86,126.86,126.86-56.91,126.86-126.86S196.81,0,126.86,0Zm0,250.72C58.56,250.72,3,195.16,3,126.86S58.56,3,126.86,3s123.86,55.56,123.86,123.86-55.56,123.86-123.86,123.86Z"/>
      <path class="cls-1" d="m206.55,80.77l-102.02,102.02c-1.39,1.39-3.24,2.15-5.21,2.15h-.01c-1.97,0-3.82-.77-5.22-2.17l-47.27-47.27c-.59-.59-1.54-.59-2.12,0-.59.59-.59,1.54,0,2.12l47.27,47.27c1.96,1.96,4.56,3.05,7.33,3.05h.02c2.77,0,5.37-1.07,7.35-3.05l102-102c.59-.59.59-1.54,0-2.12-.59-.59-1.54-.59-2.12,0Z"/>
    </g>
  </g>
</svg>