<?xml version="1.0" encoding="UTF-8"?>
<svg id="Layer_2" data-name="Layer 2" xmlns="http://www.w3.org/2000/svg" viewBox="0 0 713.44 713.46">
  <defs>
    <style>
      .cls-1 {
        fill: #ededed;
      }
    </style>
  </defs>
  <g id="Layer_1-2" data-name="Layer 1">
    <g id="zarinpal">
      <path class="cls-1" d="m241.68,26.14L26.14,241.68c-9.65,9.65-26.14,2.81-26.14-10.83V24.59C0,11.01,11.01,0,24.59,0h206.27c13.64,0,20.47,16.49,10.83,26.14Z"/>
      <path class="cls-1" d="m713.44,103.39v.02c0,27.42-10.89,53.72-30.28,73.1l-506.67,506.67c-19.39,19.39-45.69,30.28-73.1,30.28h0c-57.1,0-103.39-46.29-103.39-103.39v-.02c0-27.42,10.89-53.72,30.28-73.1L536.95,30.28c19.39-19.39,45.69-30.28,73.1-30.28h0c57.1,0,103.39,46.29,103.39,103.39Z"/>
      <path class="cls-1" d="m471.76,687.32l215.54-215.54c9.65-9.65,26.14-2.81,26.14,10.83v206.27c0,13.58-11.01,24.59-24.59,24.59h-206.27c-13.64,0-20.47-16.49-10.83-26.14Z"/>
    </g>
  </g>
</svg>